<?xml version="1.0" standalone="no"?><!-- Generator: Gravit.io --><svg xmlns="http://www.w3.org/2000/svg" xmlns:xlink="http://www.w3.org/1999/xlink" style="isolation:isolate" viewBox="0 0 4000 1200" width="4000" height="1200"><defs><clipPath id="_clipPath_CcFgEKICaPto9MgZAUX6VPUNhJr0G4ru"><rect width="4000" height="1200"/></clipPath></defs><g clip-path="url(#_clipPath_CcFgEKICaPto9MgZAUX6VPUNhJr0G4ru)"><rect width="4000" height="1200" style="fill:rgb(0,0,0)" fill-opacity="0"/><path d=" M 158.06 949.904 C 286.147 651.806 522.382 597.916 866.505 787.974" fill="none" vector-effect="non-scaling-stroke" stroke-width="7" stroke="rgb(0,0,0)" stroke-linejoin="miter" stroke-linecap="square" stroke-miterlimit="3"/><path d=" M 490.596 652.068 C 276.047 572.127 261.734 269.561 470.354 221.217 C 593.531 192.673 724.414 273.661 736.383 400.497 C 723.586 471.962 641.483 570.419 502.162 600.019" fill="none" vector-effect="non-scaling-stroke" stroke-width="7" stroke="rgb(0,0,0)" stroke-linejoin="miter" stroke-linecap="square" stroke-miterlimit="3"/><path d=" M 441.438 386.039 C 457.247 410.136 457.276 444.864 441.438 490.137 C 457.824 476.643 474.239 470.889 490.596 472.788" fill="none" vector-effect="non-scaling-stroke" stroke-width="7" stroke="rgb(0,0,0)" stroke-linejoin="miter" stroke-linecap="square" stroke-miterlimit="3"/><path d=" M 426.98 530.62 C 453.968 546.042 479.058 546.071 502.162 530.62" fill="none" vector-effect="non-scaling-stroke" stroke-width="7" stroke="rgb(0,0,0)" stroke-linejoin="miter" stroke-linecap="square" stroke-miterlimit="3"/><path d=" M 334.448 336.882 C 373.325 315.034 409.017 315.063 441.438 336.882" fill="none" vector-effect="non-scaling-stroke" stroke-width="7" stroke="rgb(0,0,0)" stroke-linejoin="miter" stroke-linecap="square" stroke-miterlimit="3"/><path d=" M 528.187 351.34 C 587.395 323.775 621.159 323.804 629.393 351.34" fill="none" vector-effect="non-scaling-stroke" stroke-width="7" stroke="rgb(0,0,0)" stroke-linejoin="miter" stroke-linecap="square" stroke-miterlimit="3"/><path d=" M 554.211 404.835 C 583.127 409.654 608.217 406.791 629.393 396.16" fill="none" vector-effect="non-scaling-stroke" stroke-width="7" stroke="rgb(0,0,0)" stroke-linejoin="miter" stroke-linecap="square" stroke-miterlimit="3"/><path d=" M 322.882 404.835 C 339.268 422.666 357.61 427.996 377.823 420.739" fill="none" vector-effect="non-scaling-stroke" stroke-width="7" stroke="rgb(0,0,0)" stroke-linejoin="miter" stroke-linecap="square" stroke-miterlimit="3"/><path d=" M 322.388 530.62 C 195.479 615.544 167.635 339.463 247.436 271.539 C 257.659 264.078 269.381 256.48 284.797 247.242 C 219.791 177.373 445.917 80.165 527.693 117.119 C 535.441 117.522 621.658 116.603 628.899 117.119 C 682.719 105.827 781.988 213.009 735.889 247.242 C 993.994 310.482 866.821 508.165 735.889 568.243" fill="none" vector-effect="non-scaling-stroke" stroke-width="7" stroke="rgb(0,0,0)" stroke-linejoin="miter" stroke-linecap="square" stroke-miterlimit="3"/><path d=" M 1331.576 568.243 C 1310.371 569.207 1279.527 561.496 1253.502 530.652 C 1240.812 447.106 1250.078 292.266 1346.034 215.466 C 1389.61 180.59 1434.747 159.161 1490.615 154.71 C 1569.205 148.448 1644.007 191.416 1693.028 232.816 Q 1788.858 313.749 1736.402 568.243 C 1698.168 584.95 1656.751 584.979 1612.063 568.243" fill="none" vector-effect="non-scaling-stroke" stroke-width="7" stroke="rgb(0,0,0)" stroke-linejoin="miter" stroke-linecap="square" stroke-miterlimit="3"/><path d=" M 1133.943 949.904 C 1262.03 651.806 1498.266 597.916 1842.389 787.974" fill="none" vector-effect="non-scaling-stroke" stroke-width="7" stroke="rgb(0,0,0)" stroke-linejoin="miter" stroke-linecap="square" stroke-miterlimit="3"/><path d=" M 1467.889 652.068 C 1253.34 572.127 1239.027 269.561 1447.647 221.217 C 1570.824 192.673 1701.707 273.661 1713.676 400.497 C 1700.879 471.962 1618.776 570.419 1479.455 600.019" fill="none" vector-effect="non-scaling-stroke" stroke-width="7" stroke="rgb(0,0,0)" stroke-linejoin="miter" stroke-linecap="square" stroke-miterlimit="3"/><path d=" M 1334.874 351.34 C 1377.318 337.527 1433.28 341.441 1479.455 362.906 C 1545.739 343.703 1643.313 319.532 1664.518 336.882 C 1677.017 347.108 1676.225 365.954 1675.458 382.709 C 1674.816 396.727 1669.137 408.142 1664.518 420.739 C 1648.133 450.619 1577.947 478.672 1528.613 452.546 C 1506.444 436.16 1490.087 414.02 1479.455 386.039 C 1470.78 412.064 1452.496 434.262 1424.514 452.546 C 1385.96 466.344 1356.109 466.373 1334.874 452.546 C 1304.994 424.594 1300.41 362.556 1334.874 351.34 Z " fill="none" vector-effect="non-scaling-stroke" stroke-width="7" stroke="rgb(0,0,0)" stroke-linejoin="miter" stroke-linecap="square" stroke-miterlimit="3"/><path d=" M 1437.527 407.1 C 1405.482 388.751 1373.703 390.225 1342.103 411.437" fill="none" vector-effect="non-scaling-stroke" stroke-width="7" stroke="rgb(0,0,0)" stroke-linejoin="miter" stroke-linecap="square" stroke-miterlimit="3"/><path d=" M 1437.527 407.1 C 1405.482 388.751 1373.703 390.225 1342.103 411.437" fill="none" vector-effect="non-scaling-stroke" stroke-width="7" stroke="rgb(0,0,0)" stroke-linejoin="miter" stroke-linecap="square" stroke-miterlimit="3"/><path d=" M 1639.94 407.1 C 1607.895 388.751 1576.116 390.225 1544.516 411.437" fill="none" vector-effect="non-scaling-stroke" stroke-width="7" stroke="rgb(0,0,0)" stroke-linejoin="miter" stroke-linecap="square" stroke-miterlimit="3"/><path d=" M 1433.912 490.137 C 1448.129 482.426 1459.966 482.455 1469.334 490.137 C 1480.419 494.162 1488.4 494.191 1493.19 490.137 C 1507.393 482.412 1519.258 482.47 1528.613 490.137" fill="none" vector-effect="non-scaling-stroke" stroke-width="7" stroke="rgb(0,0,0)" stroke-linejoin="miter" stroke-linecap="square" stroke-miterlimit="3"/><path d=" M 1429.575 542.197 C 1471.474 553.72 1511.562 553.807 1549.577 542.197" fill="none" vector-effect="non-scaling-stroke" stroke-width="7" stroke="rgb(0,0,0)" stroke-linejoin="miter" stroke-linecap="square" stroke-miterlimit="3"/><path d=" M 2112.646 949.904 C 2240.733 651.806 2476.968 597.916 2821.092 787.974" fill="none" vector-effect="non-scaling-stroke" stroke-width="7" stroke="rgb(0,0,0)" stroke-linejoin="miter" stroke-linecap="square" stroke-miterlimit="3"/><path d=" M 2453.495 656.432 C 2238.946 576.492 2224.633 271.917 2433.254 223.572 C 2470.361 214.974 2514.737 250.67 2543.211 227.865 C 2586.033 193.567 2690.919 316.235 2699.282 404.862 C 2686.486 476.326 2604.383 574.784 2465.062 604.383" fill="none" vector-effect="non-scaling-stroke" stroke-width="7" stroke="rgb(0,0,0)" stroke-linejoin="miter" stroke-linecap="square" stroke-miterlimit="3"/><path d=" M 2514.219 381.756 C 2538.5 372.76 2566.345 372.789 2597.669 381.756" fill="none" vector-effect="non-scaling-stroke" stroke-width="7" stroke="rgb(0,0,0)" stroke-linejoin="miter" stroke-linecap="square" stroke-miterlimit="3"/><path d=" M 2270.907 420.202 C 2246.816 287.111 2313.007 178.252 2446.175 180.198 C 2503.312 167.212 2571.684 181.728 2651.118 223.572 C 2704.046 260.303 2734.449 311.417 2742.24 376.828 C 2722.662 422.636 2697.631 479.533 2667.058 489.601" fill="none" vector-effect="non-scaling-stroke" stroke-width="7" stroke="rgb(0,0,0)" stroke-linejoin="miter" stroke-linecap="square" stroke-miterlimit="3"/><path d=" M 2519.058 420.202 C 2546.526 409.265 2571.203 409.351 2592.83 420.202" fill="none" vector-effect="non-scaling-stroke" stroke-width="7" stroke="rgb(0,0,0)" stroke-linejoin="miter" stroke-linecap="square" stroke-miterlimit="3"/><path d=" M 2399.393 538.592 C 2415.217 546.578 2425.808 544.926 2440.369 543.687 C 2451.973 542.699 2465.445 536.645 2472.327 535.487" fill="none" vector-effect="non-scaling-stroke" stroke-width="7" stroke="rgb(0,0,0)" stroke-linejoin="miter" stroke-linecap="square" stroke-miterlimit="3"/><path d=" M 2327.71 427.926 C 2352.36 412.098 2377.067 412.213 2401.482 427.926" fill="none" vector-effect="non-scaling-stroke" stroke-width="7" stroke="rgb(0,0,0)" stroke-linejoin="miter" stroke-linecap="square" stroke-miterlimit="3"/><path d=" M 2317.182 381.756 C 2330.007 373.771 2344.16 370.908 2359.554 373.082 C 2378.06 378.952 2396.631 381.873 2415.181 381.756" fill="none" vector-effect="non-scaling-stroke" stroke-width="7" stroke="rgb(0,0,0)" stroke-linejoin="miter" stroke-linecap="square" stroke-miterlimit="3"/><line x1="2445.182" y1="381.756" x2="2419.519" y2="494.529" vector-effect="non-scaling-stroke" stroke-width="7" stroke="rgb(0,0,0)" stroke-linejoin="miter" stroke-linecap="square" stroke-miterlimit="3"/><path d=" M 2450.224 494.529 C 2456.333 482.498 2467.458 482.527 2483.514 494.529" fill="none" vector-effect="non-scaling-stroke" stroke-width="7" stroke="rgb(0,0,0)" stroke-linejoin="miter" stroke-linecap="square" stroke-miterlimit="3"/><path d=" M 3133.495 949.904 C 3261.581 651.806 3497.817 597.916 3841.94 787.974" fill="none" vector-effect="non-scaling-stroke" stroke-width="7" stroke="rgb(0,0,0)" stroke-linejoin="miter" stroke-linecap="square" stroke-miterlimit="3"/><path d=" M 3470.331 658.545 C 3255.783 578.605 3241.469 276.039 3450.09 227.695 C 3573.266 199.151 3704.149 280.138 3716.119 406.975 C 3703.322 478.439 3621.219 576.897 3481.898 606.496" fill="none" vector-effect="non-scaling-stroke" stroke-width="7" stroke="rgb(0,0,0)" stroke-linejoin="miter" stroke-linecap="square" stroke-miterlimit="3"/><path d=" M 3442.897 538.306 C 3475.669 546.022 3507.506 547.253 3538.321 541.911" fill="none" vector-effect="non-scaling-stroke" stroke-width="7" stroke="rgb(0,0,0)" stroke-linejoin="miter" stroke-linecap="square" stroke-miterlimit="3"/><path d=" M 3510.85 499.09 C 3521.117 496.505 3528.886 496.563 3533.983 499.09" fill="none" vector-effect="non-scaling-stroke" stroke-width="7" stroke="rgb(0,0,0)" stroke-linejoin="miter" stroke-linecap="square" stroke-miterlimit="3"/><path d=" M 3490.609 180.198 C 3416.391 151.282 3331.599 210.921 3299.762 305.352 C 3268.442 377.834 3245.396 524.429 3276.629 744.877" fill="none" vector-effect="non-scaling-stroke" stroke-width="7" stroke="rgb(0,0,0)" stroke-linejoin="miter" stroke-linecap="square" stroke-miterlimit="3"/><path d=" M 3500.144 182.932 C 3592.26 154.016 3697.501 213.655 3737.015 308.086 C 3748.101 369.843 3776.741 516.409 3765.727 747.611" fill="none" vector-effect="non-scaling-stroke" stroke-width="7" stroke="rgb(0,0,0)" stroke-linejoin="miter" stroke-linecap="square" stroke-miterlimit="3"/><path d=" M 3356.167 362.354 C 3387.32 357.499 3421.072 360.919 3457.337 372.529" fill="none" vector-effect="non-scaling-stroke" stroke-width="7" stroke="rgb(0,0,0)" stroke-linejoin="miter" stroke-linecap="square" stroke-miterlimit="3"/><path d=" M 3548.441 377.708 C 3589.566 367.712 3628.15 364.349 3664.106 367.532" fill="none" vector-effect="non-scaling-stroke" stroke-width="7" stroke="rgb(0,0,0)" stroke-linejoin="miter" stroke-linecap="square" stroke-miterlimit="3"/><path d=" M 3369.161 411.437 C 3394.072 396.592 3423.551 396.679 3457.337 411.437" fill="none" vector-effect="non-scaling-stroke" stroke-width="7" stroke="rgb(0,0,0)" stroke-linejoin="miter" stroke-linecap="square" stroke-miterlimit="3"/><path d=" M 3550.619 411.437 C 3561.809 405.783 3572.832 402.195 3583.683 400.669 C 3614.119 401.83 3632.526 405.455 3638.795 411.437" fill="none" vector-effect="non-scaling-stroke" stroke-width="7" stroke="rgb(0,0,0)" stroke-linejoin="miter" stroke-linecap="square" stroke-miterlimit="3"/><path d=" M 3490.609 420.739 L 3464.584 499.09 C 3472.295 493.307 3480.999 493.336 3490.609 499.09" fill="none" vector-effect="non-scaling-stroke" stroke-width="7" stroke="rgb(0,0,0)" stroke-linejoin="miter" stroke-linecap="square" stroke-miterlimit="3"/></g></svg>