<svg width="1058" height="444" viewBox="0 0 1058 444" fill="none" xmlns="http://www.w3.org/2000/svg">
<rect width="487" height="132" rx="16" transform="matrix(1 0 0 -1 199.5 148)" fill="#4451B2"/>
<path d="M391.866 93.224C391.333 93.224 390.917 93.0747 390.618 92.776C390.341 92.4773 390.202 92.0613 390.202 91.528V72.136C390.202 71.5813 390.351 71.1653 390.65 70.888C390.949 70.5893 391.365 70.44 391.898 70.44H399.546C401.978 70.44 403.855 71.048 405.178 72.264C406.501 73.4587 407.162 75.144 407.162 77.32C407.162 79.5173 406.501 81.224 405.178 82.44C403.855 83.6347 401.978 84.232 399.546 84.232H393.53V91.528C393.53 92.0613 393.391 92.4773 393.114 92.776C392.837 93.0747 392.421 93.224 391.866 93.224ZM393.53 81.576H399.066C400.666 81.576 401.871 81.224 402.682 80.52C403.514 79.7947 403.93 78.728 403.93 77.32C403.93 75.9333 403.514 74.888 402.682 74.184C401.871 73.4587 400.666 73.096 399.066 73.096H393.53V81.576ZM416.415 93.288C414.837 93.288 413.471 92.9573 412.319 92.296C411.189 91.6347 410.303 90.696 409.663 89.48C409.023 88.264 408.703 86.8347 408.703 85.192C408.703 83.9333 408.885 82.8133 409.247 81.832C409.61 80.8507 410.122 80.008 410.783 79.304C411.466 78.5787 412.277 78.0347 413.215 77.672C414.175 77.288 415.242 77.096 416.415 77.096C417.973 77.096 419.317 77.4267 420.447 78.088C421.599 78.7493 422.495 79.688 423.135 80.904C423.775 82.0987 424.095 83.528 424.095 85.192C424.095 86.4293 423.914 87.5493 423.551 88.552C423.189 89.5547 422.666 90.408 421.983 91.112C421.322 91.816 420.511 92.36 419.551 92.744C418.613 93.1067 417.567 93.288 416.415 93.288ZM416.415 90.792C417.29 90.792 418.058 90.5787 418.719 90.152C419.381 89.7253 419.893 89.096 420.255 88.264C420.639 87.432 420.831 86.408 420.831 85.192C420.831 83.3573 420.426 81.9707 419.615 81.032C418.805 80.0933 417.738 79.624 416.415 79.624C415.519 79.624 414.741 79.8373 414.079 80.264C413.418 80.6693 412.895 81.288 412.511 82.12C412.149 82.952 411.967 83.976 411.967 85.192C411.967 87.0053 412.373 88.392 413.183 89.352C413.994 90.312 415.071 90.792 416.415 90.792ZM432.749 93.288C431.085 93.288 429.826 92.808 428.973 91.848C428.141 90.8667 427.725 89.4587 427.725 87.624V71.848C427.725 71.3147 427.864 70.9093 428.141 70.632C428.418 70.3547 428.813 70.216 429.325 70.216C429.837 70.216 430.232 70.3547 430.509 70.632C430.808 70.9093 430.957 71.3147 430.957 71.848V87.432C430.957 88.4987 431.17 89.2987 431.597 89.832C432.045 90.344 432.685 90.6 433.517 90.6C433.709 90.6 433.88 90.6 434.029 90.6C434.178 90.5787 434.328 90.5573 434.477 90.536C434.733 90.5147 434.914 90.5893 435.021 90.76C435.128 90.9093 435.181 91.2293 435.181 91.72C435.181 92.168 435.085 92.52 434.893 92.776C434.701 93.0107 434.392 93.16 433.965 93.224C433.773 93.2453 433.57 93.256 433.357 93.256C433.144 93.2773 432.941 93.288 432.749 93.288ZM439.106 93.192C438.594 93.192 438.2 93.0427 437.922 92.744C437.645 92.424 437.506 91.9867 437.506 91.432V78.952C437.506 78.3973 437.645 77.9707 437.922 77.672C438.2 77.3733 438.594 77.224 439.106 77.224C439.618 77.224 440.013 77.3733 440.29 77.672C440.589 77.9707 440.738 78.3973 440.738 78.952V91.432C440.738 91.9867 440.6 92.424 440.322 92.744C440.045 93.0427 439.64 93.192 439.106 93.192ZM439.106 73.896C438.466 73.896 437.965 73.736 437.602 73.416C437.261 73.096 437.09 72.648 437.09 72.072C437.09 71.4747 437.261 71.0267 437.602 70.728C437.965 70.408 438.466 70.248 439.106 70.248C439.746 70.248 440.237 70.408 440.578 70.728C440.941 71.0267 441.122 71.4747 441.122 72.072C441.122 72.648 440.941 73.096 440.578 73.416C440.237 73.736 439.746 73.896 439.106 73.896ZM452.168 93.288C450.568 93.288 449.181 92.9573 448.008 92.296C446.856 91.6133 445.96 90.664 445.32 89.448C444.68 88.2107 444.36 86.76 444.36 85.096C444.36 83.8587 444.541 82.7493 444.904 81.768C445.266 80.7653 445.778 79.9227 446.44 79.24C447.122 78.5573 447.944 78.0347 448.904 77.672C449.885 77.288 450.973 77.096 452.168 77.096C452.914 77.096 453.693 77.2133 454.504 77.448C455.336 77.6613 456.104 78.024 456.808 78.536C457.085 78.7067 457.256 78.92 457.32 79.176C457.405 79.4107 457.416 79.656 457.352 79.912C457.309 80.168 457.192 80.392 457 80.584C456.829 80.7547 456.616 80.8613 456.36 80.904C456.104 80.9253 455.826 80.8507 455.528 80.68C455.016 80.3173 454.493 80.0613 453.96 79.912C453.426 79.7413 452.914 79.656 452.424 79.656C451.656 79.656 450.973 79.784 450.376 80.04C449.8 80.2747 449.309 80.6267 448.904 81.096C448.498 81.544 448.189 82.1093 447.976 82.792C447.784 83.4747 447.688 84.2533 447.688 85.128C447.688 86.8773 448.093 88.2533 448.904 89.256C449.736 90.2373 450.909 90.728 452.424 90.728C452.914 90.728 453.426 90.6533 453.96 90.504C454.493 90.3547 455.016 90.0987 455.528 89.736C455.826 89.5653 456.104 89.5013 456.36 89.544C456.616 89.5867 456.818 89.704 456.968 89.896C457.138 90.0667 457.245 90.28 457.288 90.536C457.352 90.7707 457.341 91.016 457.256 91.272C457.17 91.528 456.989 91.7413 456.712 91.912C456.029 92.4027 455.282 92.7547 454.472 92.968C453.682 93.1813 452.914 93.288 452.168 93.288ZM461.825 93.192C461.313 93.192 460.918 93.0427 460.641 92.744C460.364 92.424 460.225 91.9867 460.225 91.432V78.952C460.225 78.3973 460.364 77.9707 460.641 77.672C460.918 77.3733 461.313 77.224 461.825 77.224C462.337 77.224 462.732 77.3733 463.009 77.672C463.308 77.9707 463.457 78.3973 463.457 78.952V91.432C463.457 91.9867 463.318 92.424 463.041 92.744C462.764 93.0427 462.358 93.192 461.825 93.192ZM461.825 73.896C461.185 73.896 460.684 73.736 460.321 73.416C459.98 73.096 459.809 72.648 459.809 72.072C459.809 71.4747 459.98 71.0267 460.321 70.728C460.684 70.408 461.185 70.248 461.825 70.248C462.465 70.248 462.956 70.408 463.297 70.728C463.66 71.0267 463.841 71.4747 463.841 72.072C463.841 72.648 463.66 73.096 463.297 73.416C462.956 73.736 462.465 73.896 461.825 73.896ZM475.334 93.288C473.628 93.288 472.156 92.968 470.918 92.328C469.702 91.6667 468.753 90.7387 468.07 89.544C467.409 88.328 467.078 86.888 467.078 85.224C467.078 83.6027 467.409 82.184 468.07 80.968C468.732 79.752 469.638 78.8027 470.79 78.12C471.942 77.4373 473.254 77.096 474.726 77.096C475.814 77.096 476.785 77.2773 477.638 77.64C478.492 77.9813 479.217 78.4933 479.814 79.176C480.433 79.8373 480.892 80.648 481.19 81.608C481.51 82.568 481.67 83.6453 481.67 84.84C481.67 85.2027 481.564 85.48 481.35 85.672C481.137 85.8427 480.817 85.928 480.39 85.928H469.638V83.944H479.494L478.95 84.392C478.95 83.3253 478.79 82.4187 478.47 81.672C478.172 80.9253 477.713 80.36 477.094 79.976C476.497 79.5707 475.75 79.368 474.854 79.368C473.852 79.368 472.998 79.6027 472.294 80.072C471.612 80.5413 471.089 81.192 470.726 82.024C470.364 82.856 470.182 83.8267 470.182 84.936V85.128C470.182 87.0053 470.62 88.424 471.494 89.384C472.39 90.3227 473.681 90.792 475.366 90.792C476.006 90.792 476.678 90.7067 477.382 90.536C478.108 90.3653 478.79 90.0773 479.43 89.672C479.793 89.4587 480.113 89.3627 480.39 89.384C480.689 89.4053 480.924 89.5013 481.094 89.672C481.286 89.8427 481.404 90.056 481.446 90.312C481.489 90.568 481.446 90.8347 481.318 91.112C481.19 91.368 480.966 91.6027 480.646 91.816C479.921 92.3067 479.078 92.68 478.118 92.936C477.158 93.1707 476.23 93.288 475.334 93.288ZM490.666 93.288C489.727 93.288 488.757 93.1813 487.754 92.968C486.773 92.7547 485.866 92.392 485.034 91.88C484.757 91.688 484.565 91.4747 484.458 91.24C484.351 91.0053 484.309 90.7707 484.33 90.536C484.373 90.28 484.469 90.0667 484.618 89.896C484.789 89.704 484.991 89.5867 485.226 89.544C485.482 89.5013 485.749 89.5547 486.026 89.704C486.858 90.1733 487.658 90.504 488.426 90.696C489.194 90.8667 489.951 90.952 490.698 90.952C491.829 90.952 492.682 90.7493 493.258 90.344C493.834 89.9387 494.122 89.3947 494.122 88.712C494.122 88.1573 493.93 87.7307 493.546 87.432C493.162 87.112 492.586 86.8667 491.818 86.696L488.778 86.088C487.455 85.8107 486.453 85.32 485.77 84.616C485.087 83.912 484.746 83.016 484.746 81.928C484.746 80.9467 485.013 80.0933 485.546 79.368C486.079 78.6427 486.826 78.088 487.786 77.704C488.746 77.2987 489.855 77.096 491.114 77.096C492.053 77.096 492.938 77.2133 493.77 77.448C494.602 77.6827 495.37 78.0347 496.074 78.504C496.351 78.6533 496.533 78.856 496.618 79.112C496.703 79.3467 496.714 79.5813 496.65 79.816C496.607 80.0507 496.501 80.264 496.33 80.456C496.159 80.6267 495.946 80.7333 495.69 80.776C495.455 80.7973 495.189 80.7333 494.89 80.584C494.25 80.1787 493.61 79.8907 492.97 79.72C492.351 79.5493 491.733 79.464 491.114 79.464C489.983 79.464 489.13 79.6773 488.554 80.104C487.999 80.5093 487.722 81.064 487.722 81.768C487.722 82.3013 487.893 82.7387 488.234 83.08C488.575 83.4213 489.109 83.6667 489.834 83.816L492.874 84.424C494.261 84.7013 495.306 85.1707 496.01 85.832C496.735 86.4933 497.098 87.3893 497.098 88.52C497.098 89.992 496.511 91.1547 495.338 92.008C494.165 92.8613 492.607 93.288 490.666 93.288Z" fill="white"/>
<rect width="715" height="132" rx="16" transform="matrix(1 0 0 -1 85.5 288)" fill="#4451B2"/>
<path d="M293.455 233.288C291.172 233.288 289.22 232.819 287.599 231.88C285.977 230.941 284.729 229.608 283.855 227.88C283.001 226.131 282.575 224.072 282.575 221.704C282.575 219.933 282.82 218.344 283.311 216.936C283.801 215.507 284.505 214.291 285.423 213.288C286.361 212.264 287.503 211.485 288.847 210.952C290.212 210.419 291.748 210.152 293.455 210.152C294.713 210.152 295.919 210.323 297.071 210.664C298.244 211.005 299.257 211.496 300.111 212.136C300.473 212.371 300.708 212.659 300.815 213C300.943 213.32 300.964 213.629 300.879 213.928C300.815 214.227 300.676 214.483 300.463 214.696C300.249 214.888 299.972 214.995 299.631 215.016C299.311 215.037 298.959 214.92 298.575 214.664C297.871 214.131 297.092 213.736 296.239 213.48C295.385 213.224 294.489 213.096 293.551 213.096C291.929 213.096 290.564 213.437 289.455 214.12C288.345 214.781 287.503 215.752 286.927 217.032C286.351 218.312 286.063 219.869 286.063 221.704C286.063 223.539 286.351 225.107 286.927 226.408C287.503 227.688 288.345 228.669 289.455 229.352C290.564 230.013 291.929 230.344 293.551 230.344C294.489 230.344 295.385 230.216 296.239 229.96C297.113 229.683 297.935 229.277 298.703 228.744C299.087 228.509 299.428 228.403 299.727 228.424C300.047 228.445 300.313 228.552 300.527 228.744C300.74 228.936 300.879 229.181 300.943 229.48C301.028 229.757 301.017 230.056 300.911 230.376C300.825 230.675 300.623 230.931 300.303 231.144C299.428 231.848 298.393 232.381 297.199 232.744C296.004 233.107 294.756 233.288 293.455 233.288ZM310.275 233.288C308.696 233.288 307.331 232.957 306.179 232.296C305.048 231.635 304.163 230.696 303.523 229.48C302.883 228.264 302.563 226.835 302.563 225.192C302.563 223.933 302.744 222.813 303.107 221.832C303.469 220.851 303.981 220.008 304.643 219.304C305.325 218.579 306.136 218.035 307.075 217.672C308.035 217.288 309.101 217.096 310.275 217.096C311.832 217.096 313.176 217.427 314.307 218.088C315.459 218.749 316.355 219.688 316.995 220.904C317.635 222.099 317.955 223.528 317.955 225.192C317.955 226.429 317.773 227.549 317.411 228.552C317.048 229.555 316.525 230.408 315.843 231.112C315.181 231.816 314.371 232.36 313.411 232.744C312.472 233.107 311.427 233.288 310.275 233.288ZM310.275 230.792C311.149 230.792 311.917 230.579 312.579 230.152C313.24 229.725 313.752 229.096 314.115 228.264C314.499 227.432 314.691 226.408 314.691 225.192C314.691 223.357 314.285 221.971 313.475 221.032C312.664 220.093 311.597 219.624 310.275 219.624C309.379 219.624 308.6 219.837 307.939 220.264C307.277 220.669 306.755 221.288 306.371 222.12C306.008 222.952 305.827 223.976 305.827 225.192C305.827 227.005 306.232 228.392 307.043 229.352C307.853 230.312 308.931 230.792 310.275 230.792ZM323.185 233.224C322.673 233.224 322.278 233.085 322.001 232.808C321.723 232.509 321.585 232.104 321.585 231.592V218.792C321.585 218.259 321.723 217.853 322.001 217.576C322.278 217.299 322.662 217.16 323.153 217.16C323.665 217.16 324.049 217.299 324.305 217.576C324.582 217.853 324.721 218.259 324.721 218.792V221.288L324.369 220.712C324.838 219.517 325.574 218.621 326.577 218.024C327.579 217.405 328.731 217.096 330.033 217.096C331.27 217.096 332.294 217.331 333.105 217.8C333.937 218.248 334.555 218.941 334.961 219.88C335.366 220.797 335.569 221.96 335.569 223.368V231.592C335.569 232.104 335.43 232.509 335.153 232.808C334.875 233.085 334.481 233.224 333.969 233.224C333.435 233.224 333.03 233.085 332.753 232.808C332.475 232.509 332.337 232.104 332.337 231.592V223.56C332.337 222.216 332.07 221.235 331.537 220.616C331.025 219.997 330.214 219.688 329.105 219.688C327.803 219.688 326.758 220.093 325.969 220.904C325.201 221.715 324.817 222.803 324.817 224.168V231.592C324.817 232.68 324.273 233.224 323.185 233.224ZM345.494 233.288C344.555 233.288 343.585 233.181 342.582 232.968C341.601 232.755 340.694 232.392 339.862 231.88C339.585 231.688 339.393 231.475 339.286 231.24C339.179 231.005 339.137 230.771 339.158 230.536C339.201 230.28 339.297 230.067 339.446 229.896C339.617 229.704 339.819 229.587 340.054 229.544C340.31 229.501 340.577 229.555 340.854 229.704C341.686 230.173 342.486 230.504 343.254 230.696C344.022 230.867 344.779 230.952 345.526 230.952C346.657 230.952 347.51 230.749 348.086 230.344C348.662 229.939 348.95 229.395 348.95 228.712C348.95 228.157 348.758 227.731 348.374 227.432C347.99 227.112 347.414 226.867 346.646 226.696L343.606 226.088C342.283 225.811 341.281 225.32 340.598 224.616C339.915 223.912 339.574 223.016 339.574 221.928C339.574 220.947 339.841 220.093 340.374 219.368C340.907 218.643 341.654 218.088 342.614 217.704C343.574 217.299 344.683 217.096 345.942 217.096C346.881 217.096 347.766 217.213 348.598 217.448C349.43 217.683 350.198 218.035 350.902 218.504C351.179 218.653 351.361 218.856 351.446 219.112C351.531 219.347 351.542 219.581 351.478 219.816C351.435 220.051 351.329 220.264 351.158 220.456C350.987 220.627 350.774 220.733 350.518 220.776C350.283 220.797 350.017 220.733 349.718 220.584C349.078 220.179 348.438 219.891 347.798 219.72C347.179 219.549 346.561 219.464 345.942 219.464C344.811 219.464 343.958 219.677 343.382 220.104C342.827 220.509 342.55 221.064 342.55 221.768C342.55 222.301 342.721 222.739 343.062 223.08C343.403 223.421 343.937 223.667 344.662 223.816L347.702 224.424C349.089 224.701 350.134 225.171 350.838 225.832C351.563 226.493 351.926 227.389 351.926 228.52C351.926 229.992 351.339 231.155 350.166 232.008C348.993 232.861 347.435 233.288 345.494 233.288ZM362.022 233.288C360.742 233.288 359.664 233.064 358.79 232.616C357.915 232.168 357.264 231.507 356.838 230.632C356.411 229.757 356.198 228.691 356.198 227.432V219.88H354.278C353.851 219.88 353.52 219.773 353.286 219.56C353.051 219.325 352.934 219.016 352.934 218.632C352.934 218.227 353.051 217.917 353.286 217.704C353.52 217.491 353.851 217.384 354.278 217.384H356.198V214.088C356.198 213.555 356.336 213.149 356.614 212.872C356.912 212.595 357.318 212.456 357.83 212.456C358.342 212.456 358.736 212.595 359.014 212.872C359.291 213.149 359.43 213.555 359.43 214.088V217.384H363.174C363.6 217.384 363.931 217.491 364.166 217.704C364.4 217.917 364.518 218.227 364.518 218.632C364.518 219.016 364.4 219.325 364.166 219.56C363.931 219.773 363.6 219.88 363.174 219.88H359.43V227.176C359.43 228.307 359.664 229.16 360.134 229.736C360.624 230.312 361.414 230.6 362.502 230.6C362.886 230.6 363.216 230.568 363.494 230.504C363.792 230.419 364.038 230.365 364.23 230.344C364.464 230.344 364.656 230.429 364.806 230.6C364.955 230.749 365.03 231.048 365.03 231.496C365.03 231.816 364.966 232.115 364.838 232.392C364.731 232.669 364.528 232.851 364.23 232.936C363.974 233.021 363.622 233.096 363.174 233.16C362.747 233.245 362.363 233.288 362.022 233.288ZM368.935 233.192C368.423 233.192 368.028 233.043 367.751 232.744C367.473 232.424 367.335 231.987 367.335 231.432V218.952C367.335 218.397 367.473 217.971 367.751 217.672C368.028 217.373 368.423 217.224 368.935 217.224C369.447 217.224 369.841 217.373 370.119 217.672C370.417 217.971 370.567 218.397 370.567 218.952V231.432C370.567 231.987 370.428 232.424 370.151 232.744C369.873 233.043 369.468 233.192 368.935 233.192ZM368.935 213.896C368.295 213.896 367.793 213.736 367.431 213.416C367.089 213.096 366.919 212.648 366.919 212.072C366.919 211.475 367.089 211.027 367.431 210.728C367.793 210.408 368.295 210.248 368.935 210.248C369.575 210.248 370.065 210.408 370.407 210.728C370.769 211.027 370.951 211.475 370.951 212.072C370.951 212.648 370.769 213.096 370.407 213.416C370.065 213.736 369.575 213.896 368.935 213.896ZM381.772 233.288C380.492 233.288 379.414 233.064 378.54 232.616C377.665 232.168 377.014 231.507 376.588 230.632C376.161 229.757 375.948 228.691 375.948 227.432V219.88H374.028C373.601 219.88 373.27 219.773 373.036 219.56C372.801 219.325 372.684 219.016 372.684 218.632C372.684 218.227 372.801 217.917 373.036 217.704C373.27 217.491 373.601 217.384 374.028 217.384H375.948V214.088C375.948 213.555 376.086 213.149 376.364 212.872C376.662 212.595 377.068 212.456 377.58 212.456C378.092 212.456 378.486 212.595 378.764 212.872C379.041 213.149 379.18 213.555 379.18 214.088V217.384H382.924C383.35 217.384 383.681 217.491 383.916 217.704C384.15 217.917 384.268 218.227 384.268 218.632C384.268 219.016 384.15 219.325 383.916 219.56C383.681 219.773 383.35 219.88 382.924 219.88H379.18V227.176C379.18 228.307 379.414 229.16 379.884 229.736C380.374 230.312 381.164 230.6 382.252 230.6C382.636 230.6 382.966 230.568 383.244 230.504C383.542 230.419 383.788 230.365 383.98 230.344C384.214 230.344 384.406 230.429 384.556 230.6C384.705 230.749 384.78 231.048 384.78 231.496C384.78 231.816 384.716 232.115 384.588 232.392C384.481 232.669 384.278 232.851 383.98 232.936C383.724 233.021 383.372 233.096 382.924 233.16C382.497 233.245 382.113 233.288 381.772 233.288ZM392.371 233.288C391.113 233.288 390.057 233.053 389.203 232.584C388.371 232.115 387.742 231.421 387.315 230.504C386.91 229.565 386.707 228.392 386.707 226.984V218.792C386.707 218.237 386.846 217.832 387.123 217.576C387.401 217.299 387.795 217.16 388.307 217.16C388.819 217.16 389.214 217.299 389.491 217.576C389.79 217.832 389.939 218.237 389.939 218.792V227.016C389.939 228.275 390.195 229.203 390.707 229.8C391.219 230.397 392.03 230.696 393.139 230.696C394.355 230.696 395.337 230.291 396.083 229.48C396.851 228.648 397.235 227.56 397.235 226.216V218.792C397.235 218.237 397.374 217.832 397.651 217.576C397.929 217.299 398.334 217.16 398.867 217.16C399.379 217.16 399.774 217.299 400.051 217.576C400.329 217.832 400.467 218.237 400.467 218.792V231.592C400.467 232.68 399.945 233.224 398.899 233.224C398.409 233.224 398.025 233.085 397.747 232.808C397.47 232.509 397.331 232.104 397.331 231.592V228.872L397.747 229.576C397.321 230.771 396.638 231.688 395.699 232.328C394.761 232.968 393.651 233.288 392.371 233.288ZM411.678 233.288C410.398 233.288 409.321 233.064 408.446 232.616C407.571 232.168 406.921 231.507 406.494 230.632C406.067 229.757 405.854 228.691 405.854 227.432V219.88H403.934C403.507 219.88 403.177 219.773 402.942 219.56C402.707 219.325 402.59 219.016 402.59 218.632C402.59 218.227 402.707 217.917 402.942 217.704C403.177 217.491 403.507 217.384 403.934 217.384H405.854V214.088C405.854 213.555 405.993 213.149 406.27 212.872C406.569 212.595 406.974 212.456 407.486 212.456C407.998 212.456 408.393 212.595 408.67 212.872C408.947 213.149 409.086 213.555 409.086 214.088V217.384H412.83C413.257 217.384 413.587 217.491 413.822 217.704C414.057 217.917 414.174 218.227 414.174 218.632C414.174 219.016 414.057 219.325 413.822 219.56C413.587 219.773 413.257 219.88 412.83 219.88H409.086V227.176C409.086 228.307 409.321 229.16 409.79 229.736C410.281 230.312 411.07 230.6 412.158 230.6C412.542 230.6 412.873 230.568 413.15 230.504C413.449 230.419 413.694 230.365 413.886 230.344C414.121 230.344 414.313 230.429 414.462 230.6C414.611 230.749 414.686 231.048 414.686 231.496C414.686 231.816 414.622 232.115 414.494 232.392C414.387 232.669 414.185 232.851 413.886 232.936C413.63 233.021 413.278 233.096 412.83 233.16C412.403 233.245 412.019 233.288 411.678 233.288ZM418.591 233.192C418.079 233.192 417.684 233.043 417.407 232.744C417.129 232.424 416.991 231.987 416.991 231.432V218.952C416.991 218.397 417.129 217.971 417.407 217.672C417.684 217.373 418.079 217.224 418.591 217.224C419.103 217.224 419.497 217.373 419.775 217.672C420.073 217.971 420.223 218.397 420.223 218.952V231.432C420.223 231.987 420.084 232.424 419.807 232.744C419.529 233.043 419.124 233.192 418.591 233.192ZM418.591 213.896C417.951 213.896 417.449 213.736 417.087 213.416C416.745 213.096 416.575 212.648 416.575 212.072C416.575 211.475 416.745 211.027 417.087 210.728C417.449 210.408 417.951 210.248 418.591 210.248C419.231 210.248 419.721 210.408 420.063 210.728C420.425 211.027 420.607 211.475 420.607 212.072C420.607 212.648 420.425 213.096 420.063 213.416C419.721 213.736 419.231 213.896 418.591 213.896ZM431.556 233.288C429.977 233.288 428.612 232.957 427.46 232.296C426.329 231.635 425.444 230.696 424.804 229.48C424.164 228.264 423.844 226.835 423.844 225.192C423.844 223.933 424.025 222.813 424.388 221.832C424.751 220.851 425.263 220.008 425.924 219.304C426.607 218.579 427.417 218.035 428.356 217.672C429.316 217.288 430.383 217.096 431.556 217.096C433.113 217.096 434.457 217.427 435.588 218.088C436.74 218.749 437.636 219.688 438.276 220.904C438.916 222.099 439.236 223.528 439.236 225.192C439.236 226.429 439.055 227.549 438.692 228.552C438.329 229.555 437.807 230.408 437.124 231.112C436.463 231.816 435.652 232.36 434.692 232.744C433.753 233.107 432.708 233.288 431.556 233.288ZM431.556 230.792C432.431 230.792 433.199 230.579 433.86 230.152C434.521 229.725 435.033 229.096 435.396 228.264C435.78 227.432 435.972 226.408 435.972 225.192C435.972 223.357 435.567 221.971 434.756 221.032C433.945 220.093 432.879 219.624 431.556 219.624C430.66 219.624 429.881 219.837 429.22 220.264C428.559 220.669 428.036 221.288 427.652 222.12C427.289 222.952 427.108 223.976 427.108 225.192C427.108 227.005 427.513 228.392 428.324 229.352C429.135 230.312 430.212 230.792 431.556 230.792ZM444.466 233.224C443.954 233.224 443.559 233.085 443.282 232.808C443.004 232.509 442.866 232.104 442.866 231.592V218.792C442.866 218.259 443.004 217.853 443.282 217.576C443.559 217.299 443.943 217.16 444.434 217.16C444.946 217.16 445.33 217.299 445.586 217.576C445.863 217.853 446.002 218.259 446.002 218.792V221.288L445.65 220.712C446.119 219.517 446.855 218.621 447.858 218.024C448.86 217.405 450.012 217.096 451.314 217.096C452.551 217.096 453.575 217.331 454.386 217.8C455.218 218.248 455.836 218.941 456.242 219.88C456.647 220.797 456.85 221.96 456.85 223.368V231.592C456.85 232.104 456.711 232.509 456.434 232.808C456.156 233.085 455.762 233.224 455.25 233.224C454.716 233.224 454.311 233.085 454.034 232.808C453.756 232.509 453.618 232.104 453.618 231.592V223.56C453.618 222.216 453.351 221.235 452.818 220.616C452.306 219.997 451.495 219.688 450.386 219.688C449.084 219.688 448.039 220.093 447.25 220.904C446.482 221.715 446.098 222.803 446.098 224.168V231.592C446.098 232.68 445.554 233.224 444.466 233.224ZM466.295 233.288C465.207 233.288 464.226 233.075 463.351 232.648C462.498 232.221 461.826 231.645 461.335 230.92C460.845 230.195 460.599 229.373 460.599 228.456C460.599 227.304 460.887 226.397 461.463 225.736C462.061 225.053 463.031 224.573 464.375 224.296C465.741 223.997 467.575 223.848 469.879 223.848H471.383V225.832H469.911C468.375 225.832 467.159 225.907 466.263 226.056C465.367 226.205 464.727 226.461 464.343 226.824C463.981 227.165 463.799 227.645 463.799 228.264C463.799 229.075 464.077 229.736 464.631 230.248C465.186 230.739 465.954 230.984 466.935 230.984C467.725 230.984 468.418 230.803 469.015 230.44C469.613 230.056 470.082 229.544 470.423 228.904C470.786 228.264 470.967 227.528 470.967 226.696V223.016C470.967 221.8 470.711 220.925 470.199 220.392C469.687 219.859 468.845 219.592 467.671 219.592C466.989 219.592 466.274 219.677 465.527 219.848C464.802 220.019 464.045 220.307 463.255 220.712C462.893 220.883 462.583 220.936 462.327 220.872C462.071 220.808 461.869 220.669 461.719 220.456C461.57 220.221 461.485 219.976 461.463 219.72C461.463 219.443 461.527 219.176 461.655 218.92C461.805 218.664 462.05 218.472 462.391 218.344C463.33 217.896 464.258 217.576 465.175 217.384C466.093 217.192 466.957 217.096 467.767 217.096C469.197 217.096 470.37 217.32 471.287 217.768C472.226 218.216 472.919 218.899 473.367 219.816C473.815 220.733 474.039 221.917 474.039 223.368V231.592C474.039 232.104 473.911 232.509 473.655 232.808C473.399 233.085 473.026 233.224 472.535 233.224C472.066 233.224 471.693 233.085 471.415 232.808C471.138 232.509 470.999 232.104 470.999 231.592V229.512H471.287C471.117 230.301 470.797 230.984 470.327 231.56C469.879 232.115 469.314 232.541 468.631 232.84C467.949 233.139 467.17 233.288 466.295 233.288ZM483.515 233.288C481.851 233.288 480.592 232.808 479.739 231.848C478.907 230.867 478.491 229.459 478.491 227.624V211.848C478.491 211.315 478.629 210.909 478.907 210.632C479.184 210.355 479.579 210.216 480.091 210.216C480.603 210.216 480.997 210.355 481.275 210.632C481.573 210.909 481.723 211.315 481.723 211.848V227.432C481.723 228.499 481.936 229.299 482.363 229.832C482.811 230.344 483.451 230.6 484.283 230.6C484.475 230.6 484.645 230.6 484.795 230.6C484.944 230.579 485.093 230.557 485.243 230.536C485.499 230.515 485.68 230.589 485.787 230.76C485.893 230.909 485.947 231.229 485.947 231.72C485.947 232.168 485.851 232.52 485.659 232.776C485.467 233.011 485.157 233.16 484.731 233.224C484.539 233.245 484.336 233.256 484.123 233.256C483.909 233.277 483.707 233.288 483.515 233.288ZM498.726 233.224C498.192 233.224 497.776 233.075 497.478 232.776C497.2 232.477 497.062 232.061 497.062 231.528V212.136C497.062 211.581 497.211 211.165 497.51 210.888C497.808 210.589 498.224 210.44 498.758 210.44H506.406C508.838 210.44 510.715 211.048 512.038 212.264C513.36 213.459 514.022 215.144 514.022 217.32C514.022 219.517 513.36 221.224 512.038 222.44C510.715 223.635 508.838 224.232 506.406 224.232H500.39V231.528C500.39 232.061 500.251 232.477 499.974 232.776C499.696 233.075 499.28 233.224 498.726 233.224ZM500.39 221.576H505.926C507.526 221.576 508.731 221.224 509.542 220.52C510.374 219.795 510.79 218.728 510.79 217.32C510.79 215.933 510.374 214.888 509.542 214.184C508.731 213.459 507.526 213.096 505.926 213.096H500.39V221.576ZM523.275 233.288C521.696 233.288 520.331 232.957 519.179 232.296C518.048 231.635 517.163 230.696 516.523 229.48C515.883 228.264 515.563 226.835 515.563 225.192C515.563 223.933 515.744 222.813 516.107 221.832C516.469 220.851 516.981 220.008 517.643 219.304C518.325 218.579 519.136 218.035 520.075 217.672C521.035 217.288 522.101 217.096 523.275 217.096C524.832 217.096 526.176 217.427 527.307 218.088C528.459 218.749 529.355 219.688 529.995 220.904C530.635 222.099 530.955 223.528 530.955 225.192C530.955 226.429 530.773 227.549 530.411 228.552C530.048 229.555 529.525 230.408 528.843 231.112C528.181 231.816 527.371 232.36 526.411 232.744C525.472 233.107 524.427 233.288 523.275 233.288ZM523.275 230.792C524.149 230.792 524.917 230.579 525.579 230.152C526.24 229.725 526.752 229.096 527.115 228.264C527.499 227.432 527.691 226.408 527.691 225.192C527.691 223.357 527.285 221.971 526.475 221.032C525.664 220.093 524.597 219.624 523.275 219.624C522.379 219.624 521.6 219.837 520.939 220.264C520.277 220.669 519.755 221.288 519.371 222.12C519.008 222.952 518.827 223.976 518.827 225.192C518.827 227.005 519.232 228.392 520.043 229.352C520.853 230.312 521.931 230.792 523.275 230.792ZM539.609 233.288C537.945 233.288 536.686 232.808 535.833 231.848C535.001 230.867 534.585 229.459 534.585 227.624V211.848C534.585 211.315 534.723 210.909 535.001 210.632C535.278 210.355 535.673 210.216 536.185 210.216C536.697 210.216 537.091 210.355 537.369 210.632C537.667 210.909 537.817 211.315 537.817 211.848V227.432C537.817 228.499 538.03 229.299 538.457 229.832C538.905 230.344 539.545 230.6 540.377 230.6C540.569 230.6 540.739 230.6 540.889 230.6C541.038 230.579 541.187 230.557 541.337 230.536C541.593 230.515 541.774 230.589 541.881 230.76C541.987 230.909 542.041 231.229 542.041 231.72C542.041 232.168 541.945 232.52 541.753 232.776C541.561 233.011 541.251 233.16 540.825 233.224C540.633 233.245 540.43 233.256 540.217 233.256C540.003 233.277 539.801 233.288 539.609 233.288ZM545.966 233.192C545.454 233.192 545.059 233.043 544.782 232.744C544.504 232.424 544.366 231.987 544.366 231.432V218.952C544.366 218.397 544.504 217.971 544.782 217.672C545.059 217.373 545.454 217.224 545.966 217.224C546.478 217.224 546.872 217.373 547.15 217.672C547.448 217.971 547.598 218.397 547.598 218.952V231.432C547.598 231.987 547.459 232.424 547.182 232.744C546.904 233.043 546.499 233.192 545.966 233.192ZM545.966 213.896C545.326 213.896 544.824 213.736 544.462 213.416C544.12 213.096 543.95 212.648 543.95 212.072C543.95 211.475 544.12 211.027 544.462 210.728C544.824 210.408 545.326 210.248 545.966 210.248C546.606 210.248 547.096 210.408 547.438 210.728C547.8 211.027 547.982 211.475 547.982 212.072C547.982 212.648 547.8 213.096 547.438 213.416C547.096 213.736 546.606 213.896 545.966 213.896ZM559.027 233.288C557.427 233.288 556.04 232.957 554.867 232.296C553.715 231.613 552.819 230.664 552.179 229.448C551.539 228.211 551.219 226.76 551.219 225.096C551.219 223.859 551.4 222.749 551.763 221.768C552.126 220.765 552.638 219.923 553.299 219.24C553.982 218.557 554.803 218.035 555.763 217.672C556.744 217.288 557.832 217.096 559.027 217.096C559.774 217.096 560.552 217.213 561.363 217.448C562.195 217.661 562.963 218.024 563.667 218.536C563.944 218.707 564.115 218.92 564.179 219.176C564.264 219.411 564.275 219.656 564.211 219.912C564.168 220.168 564.051 220.392 563.859 220.584C563.688 220.755 563.475 220.861 563.219 220.904C562.963 220.925 562.686 220.851 562.387 220.68C561.875 220.317 561.352 220.061 560.819 219.912C560.286 219.741 559.774 219.656 559.283 219.656C558.515 219.656 557.832 219.784 557.235 220.04C556.659 220.275 556.168 220.627 555.763 221.096C555.358 221.544 555.048 222.109 554.835 222.792C554.643 223.475 554.547 224.253 554.547 225.128C554.547 226.877 554.952 228.253 555.763 229.256C556.595 230.237 557.768 230.728 559.283 230.728C559.774 230.728 560.286 230.653 560.819 230.504C561.352 230.355 561.875 230.099 562.387 229.736C562.686 229.565 562.963 229.501 563.219 229.544C563.475 229.587 563.678 229.704 563.827 229.896C563.998 230.067 564.104 230.28 564.147 230.536C564.211 230.771 564.2 231.016 564.115 231.272C564.03 231.528 563.848 231.741 563.571 231.912C562.888 232.403 562.142 232.755 561.331 232.968C560.542 233.181 559.774 233.288 559.027 233.288ZM568.685 233.192C568.173 233.192 567.778 233.043 567.501 232.744C567.223 232.424 567.085 231.987 567.085 231.432V218.952C567.085 218.397 567.223 217.971 567.501 217.672C567.778 217.373 568.173 217.224 568.685 217.224C569.197 217.224 569.591 217.373 569.869 217.672C570.167 217.971 570.317 218.397 570.317 218.952V231.432C570.317 231.987 570.178 232.424 569.901 232.744C569.623 233.043 569.218 233.192 568.685 233.192ZM568.685 213.896C568.045 213.896 567.543 213.736 567.181 213.416C566.839 213.096 566.669 212.648 566.669 212.072C566.669 211.475 566.839 211.027 567.181 210.728C567.543 210.408 568.045 210.248 568.685 210.248C569.325 210.248 569.815 210.408 570.157 210.728C570.519 211.027 570.701 211.475 570.701 212.072C570.701 212.648 570.519 213.096 570.157 213.416C569.815 213.736 569.325 213.896 568.685 213.896ZM582.194 233.288C580.487 233.288 579.015 232.968 577.778 232.328C576.562 231.667 575.612 230.739 574.93 229.544C574.268 228.328 573.938 226.888 573.938 225.224C573.938 223.603 574.268 222.184 574.93 220.968C575.591 219.752 576.498 218.803 577.65 218.12C578.802 217.437 580.114 217.096 581.586 217.096C582.674 217.096 583.644 217.277 584.498 217.64C585.351 217.981 586.076 218.493 586.674 219.176C587.292 219.837 587.751 220.648 588.05 221.608C588.37 222.568 588.53 223.645 588.53 224.84C588.53 225.203 588.423 225.48 588.21 225.672C587.996 225.843 587.676 225.928 587.25 225.928H576.498V223.944H586.354L585.81 224.392C585.81 223.325 585.65 222.419 585.33 221.672C585.031 220.925 584.572 220.36 583.954 219.976C583.356 219.571 582.61 219.368 581.714 219.368C580.711 219.368 579.858 219.603 579.154 220.072C578.471 220.541 577.948 221.192 577.586 222.024C577.223 222.856 577.042 223.827 577.042 224.936V225.128C577.042 227.005 577.479 228.424 578.354 229.384C579.25 230.323 580.54 230.792 582.226 230.792C582.866 230.792 583.538 230.707 584.242 230.536C584.967 230.365 585.65 230.077 586.29 229.672C586.652 229.459 586.972 229.363 587.25 229.384C587.548 229.405 587.783 229.501 587.954 229.672C588.146 229.843 588.263 230.056 588.306 230.312C588.348 230.568 588.306 230.835 588.178 231.112C588.05 231.368 587.826 231.603 587.506 231.816C586.78 232.307 585.938 232.68 584.978 232.936C584.018 233.171 583.09 233.288 582.194 233.288ZM597.525 233.288C596.587 233.288 595.616 233.181 594.613 232.968C593.632 232.755 592.725 232.392 591.893 231.88C591.616 231.688 591.424 231.475 591.317 231.24C591.211 231.005 591.168 230.771 591.189 230.536C591.232 230.28 591.328 230.067 591.477 229.896C591.648 229.704 591.851 229.587 592.085 229.544C592.341 229.501 592.608 229.555 592.885 229.704C593.717 230.173 594.517 230.504 595.285 230.696C596.053 230.867 596.811 230.952 597.557 230.952C598.688 230.952 599.541 230.749 600.117 230.344C600.693 229.939 600.981 229.395 600.981 228.712C600.981 228.157 600.789 227.731 600.405 227.432C600.021 227.112 599.445 226.867 598.677 226.696L595.637 226.088C594.315 225.811 593.312 225.32 592.629 224.616C591.947 223.912 591.605 223.016 591.605 221.928C591.605 220.947 591.872 220.093 592.405 219.368C592.939 218.643 593.685 218.088 594.645 217.704C595.605 217.299 596.715 217.096 597.973 217.096C598.912 217.096 599.797 217.213 600.629 217.448C601.461 217.683 602.229 218.035 602.933 218.504C603.211 218.653 603.392 218.856 603.477 219.112C603.563 219.347 603.573 219.581 603.509 219.816C603.467 220.051 603.36 220.264 603.189 220.456C603.019 220.627 602.805 220.733 602.549 220.776C602.315 220.797 602.048 220.733 601.749 220.584C601.109 220.179 600.469 219.891 599.829 219.72C599.211 219.549 598.592 219.464 597.973 219.464C596.843 219.464 595.989 219.677 595.413 220.104C594.859 220.509 594.581 221.064 594.581 221.768C594.581 222.301 594.752 222.739 595.093 223.08C595.435 223.421 595.968 223.667 596.693 223.816L599.733 224.424C601.12 224.701 602.165 225.171 602.869 225.832C603.595 226.493 603.957 227.389 603.957 228.52C603.957 229.992 603.371 231.155 602.197 232.008C601.024 232.861 599.467 233.288 597.525 233.288Z" fill="white"/>
<rect width="822" height="132" rx="16" transform="matrix(1 0 0 -1 32 428)" fill="#4451B2"/>
<path d="M285.111 373.288C282.828 373.288 280.876 372.819 279.255 371.88C277.634 370.941 276.386 369.608 275.511 367.88C274.658 366.131 274.231 364.072 274.231 361.704C274.231 359.933 274.476 358.344 274.967 356.936C275.458 355.507 276.162 354.291 277.079 353.288C278.018 352.264 279.159 351.485 280.503 350.952C281.868 350.419 283.404 350.152 285.111 350.152C286.37 350.152 287.575 350.323 288.727 350.664C289.9 351.005 290.914 351.496 291.767 352.136C292.13 352.371 292.364 352.659 292.471 353C292.599 353.32 292.62 353.629 292.535 353.928C292.471 354.227 292.332 354.483 292.119 354.696C291.906 354.888 291.628 354.995 291.287 355.016C290.967 355.037 290.615 354.92 290.231 354.664C289.527 354.131 288.748 353.736 287.895 353.48C287.042 353.224 286.146 353.096 285.207 353.096C283.586 353.096 282.22 353.437 281.111 354.12C280.002 354.781 279.159 355.752 278.583 357.032C278.007 358.312 277.719 359.869 277.719 361.704C277.719 363.539 278.007 365.107 278.583 366.408C279.159 367.688 280.002 368.669 281.111 369.352C282.22 370.013 283.586 370.344 285.207 370.344C286.146 370.344 287.042 370.216 287.895 369.96C288.77 369.683 289.591 369.277 290.359 368.744C290.743 368.509 291.084 368.403 291.383 368.424C291.703 368.445 291.97 368.552 292.183 368.744C292.396 368.936 292.535 369.181 292.599 369.48C292.684 369.757 292.674 370.056 292.567 370.376C292.482 370.675 292.279 370.931 291.959 371.144C291.084 371.848 290.05 372.381 288.855 372.744C287.66 373.107 286.412 373.288 285.111 373.288ZM301.931 373.288C300.352 373.288 298.987 372.957 297.835 372.296C296.704 371.635 295.819 370.696 295.179 369.48C294.539 368.264 294.219 366.835 294.219 365.192C294.219 363.933 294.4 362.813 294.763 361.832C295.126 360.851 295.638 360.008 296.299 359.304C296.982 358.579 297.792 358.035 298.731 357.672C299.691 357.288 300.758 357.096 301.931 357.096C303.488 357.096 304.832 357.427 305.963 358.088C307.115 358.749 308.011 359.688 308.651 360.904C309.291 362.099 309.611 363.528 309.611 365.192C309.611 366.429 309.43 367.549 309.067 368.552C308.704 369.555 308.182 370.408 307.499 371.112C306.838 371.816 306.027 372.36 305.067 372.744C304.128 373.107 303.083 373.288 301.931 373.288ZM301.931 370.792C302.806 370.792 303.574 370.579 304.235 370.152C304.896 369.725 305.408 369.096 305.771 368.264C306.155 367.432 306.347 366.408 306.347 365.192C306.347 363.357 305.942 361.971 305.131 361.032C304.32 360.093 303.254 359.624 301.931 359.624C301.035 359.624 300.256 359.837 299.595 360.264C298.934 360.669 298.411 361.288 298.027 362.12C297.664 362.952 297.483 363.976 297.483 365.192C297.483 367.005 297.888 368.392 298.699 369.352C299.51 370.312 300.587 370.792 301.931 370.792ZM314.905 373.224C314.393 373.224 313.998 373.085 313.721 372.808C313.443 372.509 313.305 372.104 313.305 371.592V358.792C313.305 358.259 313.443 357.853 313.721 357.576C313.998 357.299 314.382 357.16 314.873 357.16C315.385 357.16 315.769 357.299 316.025 357.576C316.302 357.853 316.441 358.259 316.441 358.792V361.416L316.089 360.712C316.515 359.581 317.177 358.696 318.073 358.056C318.969 357.416 320.046 357.096 321.305 357.096C322.606 357.096 323.662 357.405 324.473 358.024C325.283 358.643 325.838 359.592 326.137 360.872H325.689C326.094 359.699 326.787 358.781 327.769 358.12C328.75 357.437 329.891 357.096 331.193 357.096C332.387 357.096 333.369 357.331 334.137 357.8C334.905 358.248 335.481 358.941 335.865 359.88C336.249 360.797 336.441 361.96 336.441 363.368V371.592C336.441 372.104 336.291 372.509 335.993 372.808C335.715 373.085 335.321 373.224 334.809 373.224C334.297 373.224 333.902 373.085 333.625 372.808C333.347 372.509 333.209 372.104 333.209 371.592V363.528C333.209 362.205 332.974 361.235 332.505 360.616C332.057 359.997 331.31 359.688 330.265 359.688C329.091 359.688 328.163 360.093 327.481 360.904C326.798 361.715 326.457 362.835 326.457 364.264V371.592C326.457 372.104 326.318 372.509 326.041 372.808C325.763 373.085 325.369 373.224 324.857 373.224C324.345 373.224 323.939 373.085 323.641 372.808C323.363 372.509 323.225 372.104 323.225 371.592V363.528C323.225 362.205 323.001 361.235 322.553 360.616C322.105 359.997 321.358 359.688 320.313 359.688C319.139 359.688 318.211 360.093 317.529 360.904C316.867 361.715 316.537 362.835 316.537 364.264V371.592C316.537 372.68 315.993 373.224 314.905 373.224ZM342.624 373.224C342.112 373.224 341.717 373.085 341.44 372.808C341.162 372.509 341.024 372.104 341.024 371.592V358.792C341.024 358.259 341.162 357.853 341.44 357.576C341.717 357.299 342.101 357.16 342.592 357.16C343.104 357.16 343.488 357.299 343.744 357.576C344.021 357.853 344.16 358.259 344.16 358.792V361.416L343.808 360.712C344.234 359.581 344.896 358.696 345.792 358.056C346.688 357.416 347.765 357.096 349.024 357.096C350.325 357.096 351.381 357.405 352.192 358.024C353.002 358.643 353.557 359.592 353.856 360.872H353.408C353.813 359.699 354.506 358.781 355.488 358.12C356.469 357.437 357.61 357.096 358.912 357.096C360.106 357.096 361.088 357.331 361.856 357.8C362.624 358.248 363.2 358.941 363.584 359.88C363.968 360.797 364.16 361.96 364.16 363.368V371.592C364.16 372.104 364.01 372.509 363.712 372.808C363.434 373.085 363.04 373.224 362.528 373.224C362.016 373.224 361.621 373.085 361.344 372.808C361.066 372.509 360.928 372.104 360.928 371.592V363.528C360.928 362.205 360.693 361.235 360.224 360.616C359.776 359.997 359.029 359.688 357.984 359.688C356.81 359.688 355.882 360.093 355.2 360.904C354.517 361.715 354.176 362.835 354.176 364.264V371.592C354.176 372.104 354.037 372.509 353.76 372.808C353.482 373.085 353.088 373.224 352.576 373.224C352.064 373.224 351.658 373.085 351.36 372.808C351.082 372.509 350.944 372.104 350.944 371.592V363.528C350.944 362.205 350.72 361.235 350.272 360.616C349.824 359.997 349.077 359.688 348.032 359.688C346.858 359.688 345.93 360.093 345.248 360.904C344.586 361.715 344.256 362.835 344.256 364.264V371.592C344.256 372.68 343.712 373.224 342.624 373.224ZM374.246 373.288C372.988 373.288 371.932 373.053 371.078 372.584C370.246 372.115 369.617 371.421 369.19 370.504C368.785 369.565 368.582 368.392 368.582 366.984V358.792C368.582 358.237 368.721 357.832 368.998 357.576C369.276 357.299 369.67 357.16 370.182 357.16C370.694 357.16 371.089 357.299 371.366 357.576C371.665 357.832 371.814 358.237 371.814 358.792V367.016C371.814 368.275 372.07 369.203 372.582 369.8C373.094 370.397 373.905 370.696 375.014 370.696C376.23 370.696 377.212 370.291 377.958 369.48C378.726 368.648 379.11 367.56 379.11 366.216V358.792C379.11 358.237 379.249 357.832 379.526 357.576C379.804 357.299 380.209 357.16 380.742 357.16C381.254 357.16 381.649 357.299 381.926 357.576C382.204 357.832 382.342 358.237 382.342 358.792V371.592C382.342 372.68 381.82 373.224 380.774 373.224C380.284 373.224 379.9 373.085 379.622 372.808C379.345 372.509 379.206 372.104 379.206 371.592V368.872L379.622 369.576C379.196 370.771 378.513 371.688 377.574 372.328C376.636 372.968 375.526 373.288 374.246 373.288ZM388.497 373.224C387.985 373.224 387.59 373.085 387.313 372.808C387.036 372.509 386.897 372.104 386.897 371.592V358.792C386.897 358.259 387.036 357.853 387.313 357.576C387.59 357.299 387.974 357.16 388.465 357.16C388.977 357.16 389.361 357.299 389.617 357.576C389.894 357.853 390.033 358.259 390.033 358.792V361.288L389.681 360.712C390.15 359.517 390.886 358.621 391.889 358.024C392.892 357.405 394.044 357.096 395.345 357.096C396.582 357.096 397.606 357.331 398.417 357.8C399.249 358.248 399.868 358.941 400.273 359.88C400.678 360.797 400.881 361.96 400.881 363.368V371.592C400.881 372.104 400.742 372.509 400.465 372.808C400.188 373.085 399.793 373.224 399.281 373.224C398.748 373.224 398.342 373.085 398.065 372.808C397.788 372.509 397.649 372.104 397.649 371.592V363.56C397.649 362.216 397.382 361.235 396.849 360.616C396.337 359.997 395.526 359.688 394.417 359.688C393.116 359.688 392.07 360.093 391.281 360.904C390.513 361.715 390.129 362.803 390.129 364.168V371.592C390.129 372.68 389.585 373.224 388.497 373.224ZM406.935 373.192C406.423 373.192 406.028 373.043 405.751 372.744C405.473 372.424 405.335 371.987 405.335 371.432V358.952C405.335 358.397 405.473 357.971 405.751 357.672C406.028 357.373 406.423 357.224 406.935 357.224C407.447 357.224 407.841 357.373 408.119 357.672C408.417 357.971 408.567 358.397 408.567 358.952V371.432C408.567 371.987 408.428 372.424 408.151 372.744C407.873 373.043 407.468 373.192 406.935 373.192ZM406.935 353.896C406.295 353.896 405.793 353.736 405.431 353.416C405.089 353.096 404.919 352.648 404.919 352.072C404.919 351.475 405.089 351.027 405.431 350.728C405.793 350.408 406.295 350.248 406.935 350.248C407.575 350.248 408.065 350.408 408.407 350.728C408.769 351.027 408.951 351.475 408.951 352.072C408.951 352.648 408.769 353.096 408.407 353.416C408.065 353.736 407.575 353.896 406.935 353.896ZM419.772 373.288C418.492 373.288 417.414 373.064 416.54 372.616C415.665 372.168 415.014 371.507 414.588 370.632C414.161 369.757 413.948 368.691 413.948 367.432V359.88H412.028C411.601 359.88 411.27 359.773 411.036 359.56C410.801 359.325 410.684 359.016 410.684 358.632C410.684 358.227 410.801 357.917 411.036 357.704C411.27 357.491 411.601 357.384 412.028 357.384H413.948V354.088C413.948 353.555 414.086 353.149 414.364 352.872C414.662 352.595 415.068 352.456 415.58 352.456C416.092 352.456 416.486 352.595 416.764 352.872C417.041 353.149 417.18 353.555 417.18 354.088V357.384H420.924C421.35 357.384 421.681 357.491 421.916 357.704C422.15 357.917 422.268 358.227 422.268 358.632C422.268 359.016 422.15 359.325 421.916 359.56C421.681 359.773 421.35 359.88 420.924 359.88H417.18V367.176C417.18 368.307 417.414 369.16 417.884 369.736C418.374 370.312 419.164 370.6 420.252 370.6C420.636 370.6 420.966 370.568 421.244 370.504C421.542 370.419 421.788 370.365 421.98 370.344C422.214 370.344 422.406 370.429 422.556 370.6C422.705 370.749 422.78 371.048 422.78 371.496C422.78 371.816 422.716 372.115 422.588 372.392C422.481 372.669 422.278 372.851 421.98 372.936C421.724 373.021 421.372 373.096 420.924 373.16C420.497 373.245 420.113 373.288 419.772 373.288ZM428.702 378.984C428.318 378.984 427.998 378.877 427.742 378.664C427.507 378.472 427.369 378.205 427.326 377.864C427.305 377.544 427.369 377.192 427.518 376.808L429.694 371.912V373.288L423.71 359.368C423.561 358.984 423.507 358.621 423.55 358.28C423.593 357.939 423.753 357.672 424.03 357.48C424.307 357.267 424.681 357.16 425.15 357.16C425.555 357.16 425.875 357.256 426.11 357.448C426.345 357.64 426.558 357.971 426.75 358.44L431.582 370.376H430.686L435.582 358.44C435.774 357.949 435.998 357.619 436.254 357.448C436.51 357.256 436.862 357.16 437.31 357.16C437.694 357.16 437.993 357.267 438.206 357.48C438.441 357.672 438.579 357.939 438.622 358.28C438.686 358.6 438.633 358.952 438.462 359.336L430.462 377.736C430.249 378.227 430.003 378.557 429.726 378.728C429.47 378.899 429.129 378.984 428.702 378.984ZM452.229 373C451.653 373 451.205 372.851 450.885 372.552C450.586 372.232 450.437 371.784 450.437 371.208V352.232C450.437 351.656 450.586 351.219 450.885 350.92C451.205 350.6 451.653 350.44 452.229 350.44H458.405C462.117 350.44 464.975 351.411 466.981 353.352C469.007 355.272 470.021 358.056 470.021 361.704C470.021 363.517 469.765 365.128 469.253 366.536C468.741 367.944 467.983 369.128 466.981 370.088C465.999 371.027 464.794 371.752 463.365 372.264C461.935 372.755 460.282 373 458.405 373H452.229ZM453.765 370.216H458.213C459.621 370.216 460.837 370.045 461.861 369.704C462.906 369.341 463.781 368.808 464.485 368.104C465.189 367.4 465.711 366.515 466.053 365.448C466.394 364.381 466.565 363.133 466.565 361.704C466.565 358.867 465.861 356.744 464.453 355.336C463.066 353.928 460.986 353.224 458.213 353.224H453.765V370.216ZM480.9 373.288C479.321 373.288 477.956 372.957 476.804 372.296C475.673 371.635 474.788 370.696 474.148 369.48C473.508 368.264 473.188 366.835 473.188 365.192C473.188 363.933 473.369 362.813 473.732 361.832C474.094 360.851 474.606 360.008 475.268 359.304C475.95 358.579 476.761 358.035 477.7 357.672C478.66 357.288 479.726 357.096 480.9 357.096C482.457 357.096 483.801 357.427 484.932 358.088C486.084 358.749 486.98 359.688 487.62 360.904C488.26 362.099 488.58 363.528 488.58 365.192C488.58 366.429 488.398 367.549 488.036 368.552C487.673 369.555 487.15 370.408 486.468 371.112C485.806 371.816 484.996 372.36 484.036 372.744C483.097 373.107 482.052 373.288 480.9 373.288ZM480.9 370.792C481.774 370.792 482.542 370.579 483.204 370.152C483.865 369.725 484.377 369.096 484.74 368.264C485.124 367.432 485.316 366.408 485.316 365.192C485.316 363.357 484.91 361.971 484.1 361.032C483.289 360.093 482.222 359.624 480.9 359.624C480.004 359.624 479.225 359.837 478.564 360.264C477.902 360.669 477.38 361.288 476.996 362.12C476.633 362.952 476.452 363.976 476.452 365.192C476.452 367.005 476.857 368.392 477.668 369.352C478.478 370.312 479.556 370.792 480.9 370.792ZM499.09 373.288C497.49 373.288 496.103 372.957 494.93 372.296C493.778 371.613 492.882 370.664 492.242 369.448C491.602 368.211 491.282 366.76 491.282 365.096C491.282 363.859 491.463 362.749 491.826 361.768C492.188 360.765 492.7 359.923 493.362 359.24C494.044 358.557 494.866 358.035 495.826 357.672C496.807 357.288 497.895 357.096 499.09 357.096C499.836 357.096 500.615 357.213 501.426 357.448C502.258 357.661 503.026 358.024 503.73 358.536C504.007 358.707 504.178 358.92 504.242 359.176C504.327 359.411 504.338 359.656 504.274 359.912C504.231 360.168 504.114 360.392 503.922 360.584C503.751 360.755 503.538 360.861 503.282 360.904C503.026 360.925 502.748 360.851 502.45 360.68C501.938 360.317 501.415 360.061 500.882 359.912C500.348 359.741 499.836 359.656 499.345 359.656C498.578 359.656 497.895 359.784 497.298 360.04C496.722 360.275 496.231 360.627 495.826 361.096C495.42 361.544 495.111 362.109 494.898 362.792C494.706 363.475 494.61 364.253 494.61 365.128C494.61 366.877 495.015 368.253 495.826 369.256C496.658 370.237 497.831 370.728 499.345 370.728C499.836 370.728 500.348 370.653 500.882 370.504C501.415 370.355 501.938 370.099 502.45 369.736C502.748 369.565 503.026 369.501 503.282 369.544C503.538 369.587 503.74 369.704 503.89 369.896C504.06 370.067 504.167 370.28 504.21 370.536C504.274 370.771 504.263 371.016 504.178 371.272C504.092 371.528 503.911 371.741 503.634 371.912C502.951 372.403 502.204 372.755 501.394 372.968C500.604 373.181 499.836 373.288 499.09 373.288ZM512.715 373.288C511.456 373.288 510.4 373.053 509.547 372.584C508.715 372.115 508.086 371.421 507.659 370.504C507.254 369.565 507.051 368.392 507.051 366.984V358.792C507.051 358.237 507.19 357.832 507.467 357.576C507.744 357.299 508.139 357.16 508.651 357.16C509.163 357.16 509.558 357.299 509.835 357.576C510.134 357.832 510.283 358.237 510.283 358.792V367.016C510.283 368.275 510.539 369.203 511.051 369.8C511.563 370.397 512.374 370.696 513.483 370.696C514.699 370.696 515.68 370.291 516.427 369.48C517.195 368.648 517.579 367.56 517.579 366.216V358.792C517.579 358.237 517.718 357.832 517.995 357.576C518.272 357.299 518.678 357.16 519.211 357.16C519.723 357.16 520.118 357.299 520.395 357.576C520.672 357.832 520.811 358.237 520.811 358.792V371.592C520.811 372.68 520.288 373.224 519.243 373.224C518.752 373.224 518.368 373.085 518.091 372.808C517.814 372.509 517.675 372.104 517.675 371.592V368.872L518.091 369.576C517.664 370.771 516.982 371.688 516.043 372.328C515.104 372.968 513.995 373.288 512.715 373.288ZM527.03 373.224C526.518 373.224 526.123 373.085 525.846 372.808C525.568 372.509 525.43 372.104 525.43 371.592V358.792C525.43 358.259 525.568 357.853 525.846 357.576C526.123 357.299 526.507 357.16 526.998 357.16C527.51 357.16 527.894 357.299 528.15 357.576C528.427 357.853 528.566 358.259 528.566 358.792V361.416L528.214 360.712C528.64 359.581 529.302 358.696 530.198 358.056C531.094 357.416 532.171 357.096 533.43 357.096C534.731 357.096 535.787 357.405 536.598 358.024C537.408 358.643 537.963 359.592 538.262 360.872H537.814C538.219 359.699 538.912 358.781 539.894 358.12C540.875 357.437 542.016 357.096 543.318 357.096C544.512 357.096 545.494 357.331 546.262 357.8C547.03 358.248 547.606 358.941 547.99 359.88C548.374 360.797 548.566 361.96 548.566 363.368V371.592C548.566 372.104 548.416 372.509 548.118 372.808C547.84 373.085 547.446 373.224 546.934 373.224C546.422 373.224 546.027 373.085 545.75 372.808C545.472 372.509 545.334 372.104 545.334 371.592V363.528C545.334 362.205 545.099 361.235 544.63 360.616C544.182 359.997 543.435 359.688 542.39 359.688C541.216 359.688 540.288 360.093 539.606 360.904C538.923 361.715 538.582 362.835 538.582 364.264V371.592C538.582 372.104 538.443 372.509 538.166 372.808C537.888 373.085 537.494 373.224 536.982 373.224C536.47 373.224 536.064 373.085 535.766 372.808C535.488 372.509 535.35 372.104 535.35 371.592V363.528C535.35 362.205 535.126 361.235 534.678 360.616C534.23 359.997 533.483 359.688 532.438 359.688C531.264 359.688 530.336 360.093 529.654 360.904C528.992 361.715 528.662 362.835 528.662 364.264V371.592C528.662 372.68 528.118 373.224 527.03 373.224ZM560.413 373.288C558.706 373.288 557.234 372.968 555.997 372.328C554.781 371.667 553.831 370.739 553.149 369.544C552.487 368.328 552.157 366.888 552.157 365.224C552.157 363.603 552.487 362.184 553.149 360.968C553.81 359.752 554.717 358.803 555.869 358.12C557.021 357.437 558.333 357.096 559.805 357.096C560.893 357.096 561.863 357.277 562.717 357.64C563.57 357.981 564.295 358.493 564.893 359.176C565.511 359.837 565.97 360.648 566.269 361.608C566.589 362.568 566.749 363.645 566.749 364.84C566.749 365.203 566.642 365.48 566.429 365.672C566.215 365.843 565.895 365.928 565.469 365.928H554.717V363.944H564.573L564.029 364.392C564.029 363.325 563.869 362.419 563.549 361.672C563.25 360.925 562.791 360.36 562.173 359.976C561.575 359.571 560.829 359.368 559.933 359.368C558.93 359.368 558.077 359.603 557.373 360.072C556.69 360.541 556.167 361.192 555.805 362.024C555.442 362.856 555.261 363.827 555.261 364.936V365.128C555.261 367.005 555.698 368.424 556.573 369.384C557.469 370.323 558.759 370.792 560.445 370.792C561.085 370.792 561.757 370.707 562.461 370.536C563.186 370.365 563.869 370.077 564.509 369.672C564.871 369.459 565.191 369.363 565.469 369.384C565.767 369.405 566.002 369.501 566.173 369.672C566.365 369.843 566.482 370.056 566.525 370.312C566.567 370.568 566.525 370.835 566.397 371.112C566.269 371.368 566.045 371.603 565.725 371.816C564.999 372.307 564.157 372.68 563.197 372.936C562.237 373.171 561.309 373.288 560.413 373.288ZM571.872 373.224C571.36 373.224 570.965 373.085 570.688 372.808C570.411 372.509 570.272 372.104 570.272 371.592V358.792C570.272 358.259 570.411 357.853 570.688 357.576C570.965 357.299 571.349 357.16 571.84 357.16C572.352 357.16 572.736 357.299 572.992 357.576C573.269 357.853 573.408 358.259 573.408 358.792V361.288L573.056 360.712C573.525 359.517 574.261 358.621 575.264 358.024C576.267 357.405 577.419 357.096 578.72 357.096C579.957 357.096 580.981 357.331 581.792 357.8C582.624 358.248 583.243 358.941 583.648 359.88C584.053 360.797 584.256 361.96 584.256 363.368V371.592C584.256 372.104 584.117 372.509 583.84 372.808C583.563 373.085 583.168 373.224 582.656 373.224C582.123 373.224 581.717 373.085 581.44 372.808C581.163 372.509 581.024 372.104 581.024 371.592V363.56C581.024 362.216 580.757 361.235 580.224 360.616C579.712 359.997 578.901 359.688 577.792 359.688C576.491 359.688 575.445 360.093 574.656 360.904C573.888 361.715 573.504 362.803 573.504 364.168V371.592C573.504 372.68 572.96 373.224 571.872 373.224ZM595.366 373.288C594.086 373.288 593.008 373.064 592.134 372.616C591.259 372.168 590.608 371.507 590.182 370.632C589.755 369.757 589.542 368.691 589.542 367.432V359.88H587.622C587.195 359.88 586.864 359.773 586.63 359.56C586.395 359.325 586.277 359.016 586.277 358.632C586.277 358.227 586.395 357.917 586.63 357.704C586.864 357.491 587.195 357.384 587.622 357.384H589.542V354.088C589.542 353.555 589.68 353.149 589.958 352.872C590.256 352.595 590.662 352.456 591.174 352.456C591.686 352.456 592.08 352.595 592.358 352.872C592.635 353.149 592.774 353.555 592.774 354.088V357.384H596.518C596.944 357.384 597.275 357.491 597.51 357.704C597.744 357.917 597.862 358.227 597.862 358.632C597.862 359.016 597.744 359.325 597.51 359.56C597.275 359.773 596.944 359.88 596.518 359.88H592.774V367.176C592.774 368.307 593.008 369.16 593.478 369.736C593.968 370.312 594.758 370.6 595.845 370.6C596.23 370.6 596.56 370.568 596.838 370.504C597.136 370.419 597.382 370.365 597.574 370.344C597.808 370.344 598 370.429 598.15 370.6C598.299 370.749 598.374 371.048 598.374 371.496C598.374 371.816 598.31 372.115 598.182 372.392C598.075 372.669 597.872 372.851 597.574 372.936C597.318 373.021 596.966 373.096 596.518 373.16C596.091 373.245 595.707 373.288 595.366 373.288ZM605.869 373.288C604.93 373.288 603.96 373.181 602.957 372.968C601.976 372.755 601.069 372.392 600.237 371.88C599.96 371.688 599.768 371.475 599.661 371.24C599.554 371.005 599.512 370.771 599.533 370.536C599.576 370.28 599.672 370.067 599.821 369.896C599.992 369.704 600.194 369.587 600.429 369.544C600.685 369.501 600.952 369.555 601.229 369.704C602.061 370.173 602.861 370.504 603.629 370.696C604.397 370.867 605.154 370.952 605.901 370.952C607.032 370.952 607.885 370.749 608.461 370.344C609.037 369.939 609.325 369.395 609.325 368.712C609.325 368.157 609.133 367.731 608.749 367.432C608.365 367.112 607.789 366.867 607.021 366.696L603.981 366.088C602.658 365.811 601.656 365.32 600.973 364.616C600.29 363.912 599.949 363.016 599.949 361.928C599.949 360.947 600.216 360.093 600.749 359.368C601.282 358.643 602.029 358.088 602.989 357.704C603.949 357.299 605.058 357.096 606.317 357.096C607.256 357.096 608.141 357.213 608.973 357.448C609.805 357.683 610.573 358.035 611.277 358.504C611.554 358.653 611.736 358.856 611.821 359.112C611.906 359.347 611.917 359.581 611.853 359.816C611.81 360.051 611.704 360.264 611.533 360.456C611.362 360.627 611.149 360.733 610.893 360.776C610.658 360.797 610.392 360.733 610.093 360.584C609.453 360.179 608.813 359.891 608.173 359.72C607.554 359.549 606.936 359.464 606.317 359.464C605.186 359.464 604.333 359.677 603.757 360.104C603.202 360.509 602.925 361.064 602.925 361.768C602.925 362.301 603.096 362.739 603.437 363.08C603.778 363.421 604.312 363.667 605.037 363.816L608.077 364.424C609.464 364.701 610.509 365.171 611.213 365.832C611.938 366.493 612.301 367.389 612.301 368.52C612.301 369.992 611.714 371.155 610.541 372.008C609.368 372.861 607.81 373.288 605.869 373.288Z" fill="white"/>
<rect width="412" height="132" rx="16" transform="matrix(0 -1 -1 0 1026 428)" fill="#4451B2"/>
<path d="M971.224 258.556C971.224 259.089 971.075 259.505 970.776 259.804C970.477 260.081 970.061 260.22 969.528 260.22H950.136C949.581 260.22 949.165 260.07 948.888 259.772C948.589 259.473 948.44 259.057 948.44 258.524V250.876C948.44 248.444 949.016 246.566 950.168 245.244C951.32 243.921 952.952 243.26 955.064 243.26C956.429 243.26 957.603 243.558 958.584 244.156C959.565 244.753 960.312 245.628 960.824 246.78C961.336 247.91 961.592 249.276 961.592 250.876L961.144 250.588V249.756C961.144 248.902 961.357 248.166 961.784 247.548C962.211 246.908 962.893 246.332 963.832 245.82L968.952 243.068C969.336 242.854 969.709 242.758 970.072 242.78C970.413 242.78 970.691 242.908 970.904 243.164C971.117 243.398 971.224 243.74 971.224 244.188C971.224 244.657 971.128 245.041 970.936 245.34C970.723 245.617 970.413 245.873 970.008 246.108L963.8 249.468C962.968 249.916 962.413 250.428 962.136 251.004C961.837 251.58 961.688 252.337 961.688 253.276V256.892H969.528C970.061 256.892 970.477 257.03 970.776 257.308C971.075 257.585 971.224 258.001 971.224 258.556ZM959.192 256.892V251.42C959.192 249.798 958.851 248.572 958.168 247.74C957.485 246.908 956.472 246.492 955.128 246.492C953.805 246.492 952.803 246.908 952.12 247.74C951.437 248.572 951.096 249.798 951.096 251.42V256.892H959.192ZM971.288 232.506C971.288 234.085 970.957 235.45 970.296 236.602C969.635 237.733 968.696 238.618 967.48 239.258C966.264 239.898 964.835 240.218 963.192 240.218C961.933 240.218 960.813 240.037 959.832 239.674C958.851 239.312 958.008 238.8 957.304 238.138C956.579 237.456 956.035 236.645 955.672 235.706C955.288 234.746 955.096 233.68 955.096 232.506C955.096 230.949 955.427 229.605 956.088 228.474C956.749 227.322 957.688 226.426 958.904 225.786C960.099 225.146 961.528 224.826 963.192 224.826C964.429 224.826 965.549 225.008 966.552 225.37C967.555 225.733 968.408 226.256 969.112 226.938C969.816 227.6 970.36 228.41 970.744 229.37C971.107 230.309 971.288 231.354 971.288 232.506ZM968.792 232.506C968.792 231.632 968.579 230.864 968.152 230.202C967.725 229.541 967.096 229.029 966.264 228.666C965.432 228.282 964.408 228.09 963.192 228.09C961.357 228.09 959.971 228.496 959.032 229.306C958.093 230.117 957.624 231.184 957.624 232.506C957.624 233.402 957.837 234.181 958.264 234.842C958.669 235.504 959.288 236.026 960.12 236.41C960.952 236.773 961.976 236.954 963.192 236.954C965.005 236.954 966.392 236.549 967.352 235.738C968.312 234.928 968.792 233.85 968.792 232.506ZM971.288 216.173C971.288 217.837 970.808 219.095 969.848 219.949C968.867 220.781 967.459 221.197 965.624 221.197H949.848C949.315 221.197 948.909 221.058 948.632 220.781C948.355 220.503 948.216 220.109 948.216 219.597C948.216 219.085 948.355 218.69 948.632 218.413C948.909 218.114 949.315 217.965 949.848 217.965H965.432C966.499 217.965 967.299 217.751 967.832 217.325C968.344 216.877 968.6 216.237 968.6 215.405C968.6 215.213 968.6 215.042 968.6 214.893C968.579 214.743 968.557 214.594 968.536 214.445C968.515 214.189 968.589 214.007 968.76 213.901C968.909 213.794 969.229 213.741 969.72 213.741C970.168 213.741 970.52 213.837 970.776 214.029C971.011 214.221 971.16 214.53 971.224 214.957C971.245 215.149 971.256 215.351 971.256 215.565C971.277 215.778 971.288 215.981 971.288 216.173ZM971.288 204.244C971.288 205.95 970.968 207.422 970.328 208.66C969.667 209.876 968.739 210.825 967.544 211.508C966.328 212.169 964.888 212.5 963.224 212.5C961.603 212.5 960.184 212.169 958.968 211.508C957.752 210.846 956.803 209.94 956.12 208.788C955.437 207.636 955.096 206.324 955.096 204.852C955.096 203.764 955.277 202.793 955.64 201.94C955.981 201.086 956.493 200.361 957.176 199.764C957.837 199.145 958.648 198.686 959.608 198.388C960.568 198.068 961.645 197.908 962.84 197.908C963.203 197.908 963.48 198.014 963.672 198.228C963.843 198.441 963.928 198.761 963.928 199.188V209.94H961.944V200.084L962.392 200.628C961.325 200.628 960.419 200.788 959.672 201.108C958.925 201.406 958.36 201.865 957.976 202.484C957.571 203.081 957.368 203.828 957.368 204.724C957.368 205.726 957.603 206.58 958.072 207.284C958.541 207.966 959.192 208.489 960.024 208.852C960.856 209.214 961.827 209.396 962.936 209.396H963.128C965.005 209.396 966.424 208.958 967.384 208.084C968.323 207.188 968.792 205.897 968.792 204.212C968.792 203.572 968.707 202.9 968.536 202.196C968.365 201.47 968.077 200.788 967.672 200.148C967.459 199.785 967.363 199.465 967.384 199.188C967.405 198.889 967.501 198.654 967.672 198.484C967.843 198.292 968.056 198.174 968.312 198.132C968.568 198.089 968.835 198.132 969.112 198.26C969.368 198.388 969.603 198.612 969.816 198.932C970.307 199.657 970.68 200.5 970.936 201.46C971.171 202.42 971.288 203.348 971.288 204.244ZM971.288 188.912C971.288 189.851 971.181 190.822 970.968 191.824C970.755 192.806 970.392 193.712 969.88 194.544C969.688 194.822 969.475 195.014 969.24 195.12C969.005 195.227 968.771 195.27 968.536 195.248C968.28 195.206 968.067 195.11 967.896 194.96C967.704 194.79 967.587 194.587 967.544 194.352C967.501 194.096 967.555 193.83 967.704 193.552C968.173 192.72 968.504 191.92 968.696 191.152C968.867 190.384 968.952 189.627 968.952 188.88C968.952 187.75 968.749 186.896 968.344 186.32C967.939 185.744 967.395 185.456 966.712 185.456C966.157 185.456 965.731 185.648 965.432 186.032C965.112 186.416 964.867 186.992 964.696 187.76L964.088 190.8C963.811 192.123 963.32 193.126 962.616 193.808C961.912 194.491 961.016 194.832 959.928 194.832C958.947 194.832 958.093 194.566 957.368 194.032C956.643 193.499 956.088 192.752 955.704 191.792C955.299 190.832 955.096 189.723 955.096 188.464C955.096 187.526 955.213 186.64 955.448 185.808C955.683 184.976 956.035 184.208 956.504 183.504C956.653 183.227 956.856 183.046 957.112 182.96C957.347 182.875 957.581 182.864 957.816 182.928C958.051 182.971 958.264 183.078 958.456 183.248C958.627 183.419 958.733 183.632 958.776 183.888C958.797 184.123 958.733 184.39 958.584 184.688C958.179 185.328 957.891 185.968 957.72 186.608C957.549 187.227 957.464 187.846 957.464 188.464C957.464 189.595 957.677 190.448 958.104 191.024C958.509 191.579 959.064 191.856 959.768 191.856C960.301 191.856 960.739 191.686 961.08 191.344C961.421 191.003 961.667 190.47 961.816 189.744L962.424 186.704C962.701 185.318 963.171 184.272 963.832 183.568C964.493 182.843 965.389 182.48 966.52 182.48C967.992 182.48 969.155 183.067 970.008 184.24C970.861 185.414 971.288 186.971 971.288 188.912Z" fill="white"/>
</svg>
