<svg width="58" height="51" viewBox="0 0 58 51" fill="none" xmlns="http://www.w3.org/2000/svg">
<path d="M5.03411 19.1256C6.2062 13.4855 10.0159 9.21144 12.2114 8.2072C15.8876 5.38466 28.7055 2.53653 39.4219 5.37299C50.1383 8.20945 56.9695 19.6859 52.7681 31.193C49.407 40.3986 43.9639 44.1202 41.6625 44.8302C37.1346 46.3675 25.4883 48.374 15.1258 44.1015C2.17259 38.7607 3.569 26.1756 5.03411 19.1256Z" fill="#9BCB3B" stroke="#9BCB3B" stroke-width="2"/>
<path d="M28.2395 10.1333C26.6579 10.6734 27.9797 14.204 29.0799 15.3404C29.6222 15.1552 29.8542 13.7319 29.9025 13.0433C29.8754 11.8933 29.5048 9.70126 28.2395 10.1333Z" fill="white" stroke="white" stroke-width="0.6"/>
<path d="M39.2041 14.1655C36.8562 13.3683 35.1727 18.7008 35.4217 21.0274C36.2267 21.3008 37.8018 19.8426 38.4887 19.0794C39.5098 17.7071 41.0825 14.8033 39.2041 14.1655Z" fill="white" stroke="white" stroke-width="0.6"/>
<path d="M33.1966 37.6637C34.7234 37.231 33.6653 33.8721 32.6859 32.7602C32.1624 32.9085 31.8649 34.2279 31.7815 34.869C31.7442 35.9448 31.9751 38.0098 33.1966 37.6637Z" fill="white" stroke="white" stroke-width="0.6"/>
<path d="M39.9811 33.7439C40.9344 32.2332 37.4902 30.207 35.8216 30.009C35.4948 30.5269 36.2486 31.8587 36.6664 32.4598C37.4535 33.3914 39.2185 34.9524 39.9811 33.7439Z" fill="white" stroke="white" stroke-width="0.6"/>
<path d="M18.5696 36.05C19.6074 37.3907 23.4996 34.2932 24.5851 32.6098C24.2292 32.1501 22.4704 32.6207 21.6354 32.9135C20.2675 33.5121 17.7393 34.9774 18.5696 36.05Z" fill="white" stroke="white" stroke-width="0.6"/>
<path d="M27.3597 40.727C29.0523 40.9055 29.3969 36.7635 28.8874 35.1231C28.3071 35.0619 27.4649 36.3834 27.1164 37.0519C26.6333 38.2174 26.0056 40.5841 27.3597 40.727Z" fill="white" stroke="white" stroke-width="0.6"/>
<path d="M14.5241 23.8741C15.1758 26.3577 20.7113 24.7716 22.5669 23.2297C22.3435 22.3782 20.1955 21.8486 19.1494 21.6903C17.3904 21.5904 14.0027 21.8872 14.5241 23.8741Z" fill="white" stroke="white" stroke-width="0.6"/>
<path d="M16.8243 29.7823C17.7723 32.1698 22.0796 30.323 23.3566 28.7185C23.0316 27.9 21.1712 27.4996 20.2816 27.4017C18.8132 27.3994 16.0659 27.8723 16.8243 29.7823Z" fill="white" stroke="white" stroke-width="0.6"/>
<path d="M18.3452 16.0549C17.3088 18.0685 21.8863 20.2501 24.0167 20.3168C24.372 19.6264 23.2713 18.0265 22.6765 17.3129C21.5782 16.2224 19.1743 14.444 18.3452 16.0549Z" fill="white" stroke="white" stroke-width="0.6"/>
<path d="M43.9273 25.1849C43.7957 23.2806 39.5302 23.6811 37.9603 24.5536C38.0054 25.2065 39.5016 25.8879 40.2441 26.147C41.5157 26.461 44.0326 26.7083 43.9273 25.1849Z" fill="white" stroke="white" stroke-width="0.6"/>
</svg>
