<?xml version="1.0" encoding="utf-8"?>
<!-- Generator: Adobe Illustrator 16.0.0, SVG Export Plug-In . SVG Version: 6.00 Build 0)  -->
<!DOCTYPE svg PUBLIC "-//W3C//DTD SVG 1.1//EN" "http://www.w3.org/Graphics/SVG/1.1/DTD/svg11.dtd">
<svg version="1.1" id="Capa_1" xmlns="http://www.w3.org/2000/svg" xmlns:xlink="http://www.w3.org/1999/xlink" x="0px" y="0px"
	 width="566.929px" height="566.929px" viewBox="0 0 566.929 566.929" enable-background="new 0 0 566.929 566.929"
	 xml:space="preserve">
<g>
	<path fill="#EE3C96" d="M391.66,263.683c-3.357-10.5,1.621-20.006,3.033-27.348c-0.174,0.006-0.342,0.012-0.516,0.019
		c-0.006-0.17-0.014-0.34-0.02-0.513c-11.818,0.318-21.018,4.941-23.6,13.775c-0.809,5.682-1.611,11.365-2.414,17.048
		c-2.541,6.842-9.525,12.333-11.564,19.466c-0.066,0.002-0.369,0.479-0.838,1.289c0.428-1.951,0.949-3.889,1.215-5.856
		c1.051-7.691,0.725-15.226-0.021-23.035c-0.516-5.319-2.125-10.511-3.633-15.619c-0.271-0.931-0.502-2.944-1.273-3.61
		c-1.912-1.642-6.398,0.196-8.135,1.144c-3.455,1.884-6.117,4.426-8.828,7.267c-2.859,3.007-4.061,5.373-5.578,9.14
		c-1.201,2.989-3.109,5.607-4.609,8.444c-1.127,2.127-1.836,5.424-4.115,6.625c-0.453,0.234-0.182-2.223-0.193-2.085
		c0.105-1.315,0.367-3.105,0.484-4.603c0.297-3.792,0.879-7.567,1.908-11.232c0.557-2.003,3.137-9.951,2.023-11.442
		c-1.033-1.384-7.588-1.317-9.166-0.67c-2.693,1.104-5.363,3.091-7.506,5.054c-3.947,3.618-6.545,8.362-8.738,13.184
		c-1.604,3.511-2.471,7.302-3.139,11.087c-0.514,2.912-0.191,7.66-1.539,10.264c-2.773,5.33-6.475,11.032-9.354,15.22
		c-2.687,3.91-11.205,11.596-13.486,9.779c-1.647-1.313-1.404-6.089-1.426-7.881c-0.04-3.386,0.382-6.768,0.96-10.098
		c1.161-6.669,1.571-13.437,2.51-20.134c0.882-6.265,2.357-12.419,3.796-18.573c0.722-3.054,1.622-5.033-2.248-5.729
		c-3.478-0.627-7.856-0.27-11.133,1.081c-6.445,2.658-9.559,9.878-11.522,16.082c-2.692,8.51-3.951,17.162-5.153,25.921
		c-1.046,7.651-14.539,24.144-18.215,24.602c-3.678,0.455-3.922-4.176-4.572-6.625c-1.865-7.002-1.873-14.905-1.255-22.076
		c0.757-8.745,0.215-19.058,3.78-27.214c2.572-5.884,6.833-10.77,9.982-16.324c3.669-6.462,10.098-26.038,10.495-28.387
		c0.458-2.693,0.996-5.375,1.424-8.074c0.853-5.404,1.402-11.07-0.13-16.409c-1.023-3.568-3.525-8.653-6.914-10.521
		c-3.168-1.747-6.608-0.48-9.842,0.319c-8.127,2.012-15.282,5.063-19.62,12.665c-2.243,3.922-8.604,24.959-9.66,29.802
		c-2.516,11.55-4.477,44.497-4.967,50.432c-0.411,5.04-1.229,9.875-3.076,14.762c-3.199,8.455-31.499,33.752-33.1,36.988
		c-1.597,3.234-0.584,3.717,0.659,3.568c6.752-0.81,30.781-28.518,32.611-28.855c4.127-0.754,5.357,9.416,6.278,11.908
		c4.217,11.455,17.335,18.014,29.727,11.16c7.887-4.366,14.409-17.508,15.311-15.504c1.67,2.178,0.75,7.527,2.442,9.666
		c2.241,5.594,11.458,8.568,19.215,5.407c11.006-4.479,22.098-17.952,25.58-22.292c-0.428,4.258-1.123,8.535-1.676,12.684
		c-0.752,5.606-1.049,11.076-1.32,16.715c-0.271,5.707-1.576,11.352-2.336,17.008c-0.939,6.984-2.697,13.846-3.404,20.863
		c-0.443,4.393-0.291,9.1,0.828,13.393c1.004,3.859,3.549,6.965,5.795,10.17c1.891,2.697,4.09,4.492,7.508,4.693
		c3,0.177,4.508-0.695,4.613-3.699c0.338-9.957,2.158-18.898,4.354-28.549c1.818-8,3.49-16.036,4.996-24.105
		c0.758-4.066,1.475-8.141,2.139-12.222c0.566-3.458,0.207-6.872,0.516-10.335c0.354-3.908,1.262-7.725,1.611-11.623
		c0.369-4.12,0.6-8.282,2.1-12.193c1.568-4.081,3.629-7.971,5.859-11.72c1.408-2.364,3.887-7.997,6.777-8.885
		c3.826-1.18,2.395,16.002,2.395,18.098c0.006,7.974,0.895,18.245-5.006,24.61c-2.158,2.327-4.092,4.848-6.205,7.222
		c-0.789,0.894-1.703,1.653-1.961,2.88c-0.096,0.457,0.355,4.76,5.939,2.811c6.863-2.396,12.463-7.291,16.879-13.187
		c1.658-2.208,3.488-4.27,5.242-6.409c3.363-4.108,6.367-8.088,9.418-12.474c1.688-2.427,3.32-4.888,4.908-7.384
		c0.508-0.803,4.018-7.623,4.58-7.58c3.643,0.277,4.172,3.982,5.359,6.707c1.135,2.609,2.791,5.011,4.139,7.521
		c2.922,5.447,5.818,11.362,5.838,17.688c0.014,4.001-1.195,9.382-6.072,9.9c-2.922,0.311-6.703-0.324-8.25-3.12
		c-1.078-1.944,0.23-4.669-0.766-6.34c-0.723-1.218,0.229-0.371-1.064-0.985c-7.348-3.135-4.957,10.168-2.549,13.459
		c11.949,16.357,31.996-1.766,37.553-11.756C411.984,293.372,396.078,277.499,391.66,263.683z M238.931,182.94
		c3.363-0.204,4.955,11.048,3.765,17.319c-3.141,16.522-10.901,38.354-12.865,38.523c-1.966,0.172-0.34,0.015-0.517,0.021
		C228.97,223.476,235.569,183.141,238.931,182.94z"/>
	<path fill="#EE3C96" d="M268.756,234.854c5.393-1.356,12.816-5.495,15.039-10.905c1.074-2.616-0.275-7.607-2.098-9.611
		c-3.279-3.607-8.556-4.225-13.428-2.875c-5.477,1.513-10.448,5.512-11.501,10.545C255.205,229.493,260.986,236.805,268.756,234.854
		z"/>
</g>
</svg>
